<svg width="140" height="100" viewBox="0 0 140 100" fill="none" xmlns="http://www.w3.org/2000/svg">
<path d="M24.968 30.2H31.16C32.568 30.2 33.816 30.44 34.904 30.92C35.992 31.384 36.848 32.024 37.472 32.84C38.112 33.64 38.584 34.528 38.888 35.504C39.208 36.48 39.368 37.512 39.368 38.6C39.368 39.4 39.28 40.184 39.104 40.952C38.928 41.704 38.632 42.456 38.216 43.208C37.8 43.944 37.28 44.592 36.656 45.152C36.032 45.696 35.24 46.144 34.28 46.496C33.32 46.832 32.248 47 31.064 47H24.968V30.2ZM31.448 43.52C32.824 43.52 33.856 43.032 34.544 42.056C35.232 41.064 35.576 39.912 35.576 38.6C35.576 37.288 35.24 36.136 34.568 35.144C33.912 34.152 32.96 33.656 31.712 33.656H28.616V43.52H31.448ZM47.1922 47.288C45.3842 47.288 43.9602 46.72 42.9202 45.584C41.8802 44.448 41.3602 42.872 41.3602 40.856C41.3602 38.888 41.8802 37.328 42.9202 36.176C43.9762 35.024 45.4002 34.448 47.1922 34.448C48.8242 34.448 50.1522 34.944 51.1762 35.936C52.2002 36.928 52.7122 38.368 52.7122 40.256C52.7122 41.04 52.6802 41.64 52.6162 42.056H44.7682C44.8002 42.824 45.0402 43.4 45.4882 43.784C45.9362 44.152 46.5042 44.336 47.1922 44.336C48.3122 44.336 49.2322 43.904 49.9522 43.04L51.9682 45.056C50.7362 46.544 49.1442 47.288 47.1922 47.288ZM44.7922 39.44H49.3762C49.2002 38.08 48.4242 37.4 47.0482 37.4C46.4242 37.4 45.9122 37.584 45.5122 37.952C45.1122 38.304 44.8722 38.8 44.7922 39.44ZM63.0648 47V45.872C62.2968 46.816 61.1768 47.288 59.7048 47.288C59.2088 47.288 58.7288 47.208 58.2648 47.048C57.8008 46.904 57.3528 46.664 56.9208 46.328C56.4888 45.992 56.1368 45.512 55.8648 44.888C55.6088 44.264 55.4808 43.536 55.4808 42.704V34.736H58.9608V41.12C58.9608 42.096 59.1048 42.808 59.3928 43.256C59.6808 43.704 60.1928 43.928 60.9288 43.928C61.6648 43.928 62.2008 43.704 62.5368 43.256C62.8888 42.808 63.0648 42.112 63.0648 41.168V34.736H66.5448V47H63.0648ZM73.8515 47.288C71.7875 47.288 70.7555 46.168 70.7555 43.928V37.784H69.0755V34.736H70.7555V31.328L74.2115 29.672V34.736H76.8755V37.784H74.2115V43.592C74.2115 43.816 74.2755 43.992 74.4035 44.12C74.5475 44.232 74.7155 44.288 74.9075 44.288C75.6115 44.288 76.3155 44.128 77.0195 43.808L76.6355 46.736C75.8835 47.104 74.9555 47.288 73.8515 47.288ZM83.8008 47.288C82.7928 47.288 81.8248 47.08 80.8968 46.664C79.9688 46.232 79.2568 45.664 78.7608 44.96L80.9928 43.064C81.3288 43.4 81.7608 43.712 82.2888 44C82.8168 44.288 83.3528 44.432 83.8968 44.432C85.0328 44.432 85.6008 44.112 85.6008 43.472C85.6008 43.184 85.4488 42.952 85.1448 42.776C84.8568 42.584 84.3128 42.336 83.5128 42.032C81.9928 41.52 80.8888 40.976 80.2008 40.4C79.5128 39.808 79.1688 38.984 79.1688 37.928C79.1688 36.856 79.6008 36.008 80.4648 35.384C81.3448 34.76 82.4328 34.448 83.7288 34.448C85.5848 34.448 87.1208 35.128 88.3368 36.488L86.0808 38.336C85.3288 37.648 84.5448 37.304 83.7288 37.304C82.7688 37.304 82.2888 37.568 82.2888 38.096C82.2888 38.592 83.0888 39.04 84.6888 39.44C85.2648 39.632 85.7368 39.816 86.1048 39.992C86.4888 40.152 86.9048 40.392 87.3528 40.712C87.8008 41.016 88.1368 41.4 88.3608 41.864C88.6008 42.328 88.7208 42.864 88.7208 43.472C88.7208 44.672 88.2728 45.608 87.3768 46.28C86.4968 46.952 85.3048 47.288 83.8008 47.288ZM96.6665 47.288C94.9225 47.288 93.5305 46.72 92.4905 45.584C91.4505 44.448 90.9305 42.88 90.9305 40.88C90.9305 38.912 91.4505 37.352 92.4905 36.2C93.5465 35.032 94.9385 34.448 96.6665 34.448C99.4505 34.448 101.242 35.728 102.042 38.288L98.7305 39.368C98.3305 38.312 97.6585 37.784 96.7145 37.784C96.0585 37.784 95.5145 38.072 95.0825 38.648C94.6665 39.224 94.4585 39.968 94.4585 40.88C94.4585 41.792 94.6665 42.536 95.0825 43.112C95.4985 43.672 96.0265 43.952 96.6665 43.952C97.6745 43.952 98.3625 43.36 98.7305 42.176L102.066 43.136C101.25 45.904 99.4505 47.288 96.6665 47.288ZM105.077 47V31.28L108.557 29.672V35.864C109.341 34.92 110.453 34.448 111.893 34.448C113.029 34.448 114.021 34.808 114.869 35.528C115.717 36.248 116.141 37.416 116.141 39.032V47H112.661V40.424C112.661 39.512 112.509 38.848 112.205 38.432C111.917 38.016 111.421 37.808 110.717 37.808C109.277 37.808 108.557 38.664 108.557 40.376V47H105.077Z" fill="url(#paint0_linear)"/>
<path d="M41.9179 72L39.1819 66.912L37.0539 69.568V72H34.6219V60.8H37.0539V66.096L41.2459 60.8H44.1739L40.8299 64.864L44.7659 72H41.9179ZM46.4363 72V61.536L48.7563 60.448V72H46.4363ZM52.4153 63.04C52.0526 63.04 51.7379 62.912 51.4713 62.656C51.2046 62.3893 51.0713 62.0747 51.0713 61.712C51.0713 61.3493 51.1993 61.04 51.4553 60.784C51.7219 60.528 52.0419 60.4 52.4153 60.4C52.7886 60.4 53.1033 60.528 53.3593 60.784C53.6153 61.0293 53.7433 61.3387 53.7433 61.712C53.7433 62.0747 53.6153 62.3893 53.3593 62.656C53.1033 62.912 52.7886 63.04 52.4153 63.04ZM51.2473 72V63.824H53.5673V72H51.2473ZM59.4053 72.192C58.2426 72.192 57.3146 71.8133 56.6213 71.056C55.9279 70.2987 55.5813 69.2533 55.5813 67.92C55.5813 66.608 55.9279 65.568 56.6213 64.8C57.3253 64.0213 58.2533 63.632 59.4053 63.632C61.2613 63.632 62.4559 64.4853 62.9893 66.192L60.7813 66.912C60.5146 66.208 60.0666 65.856 59.4373 65.856C58.9999 65.856 58.6373 66.048 58.3493 66.432C58.0719 66.816 57.9333 67.312 57.9333 67.92C57.9333 68.528 58.0719 69.024 58.3493 69.408C58.6266 69.7813 58.9786 69.968 59.4053 69.968C60.0773 69.968 60.5359 69.5733 60.7813 68.784L63.0052 69.424C62.4613 71.2693 61.2613 72.192 59.4053 72.192ZM72.6285 72H70.1005L67.9405 67.888L67.3325 68.448V72H65.0125V61.536L67.3325 60.448V65.872L69.3965 63.824H72.1485L69.6525 66.24L72.6285 72ZM78.3406 72V61.52L80.6606 60.448V64.576C81.1833 63.9467 81.9246 63.632 82.8846 63.632C83.642 63.632 84.3033 63.872 84.8686 64.352C85.434 64.832 85.7166 65.6107 85.7166 66.688V72H83.3966V67.616C83.3966 67.008 83.2953 66.5653 83.0926 66.288C82.9006 66.0107 82.57 65.872 82.1006 65.872C81.1406 65.872 80.6606 66.4427 80.6606 67.584V72H78.3406ZM89.2278 63.04C88.8651 63.04 88.5504 62.912 88.2838 62.656C88.0171 62.3893 87.8838 62.0747 87.8838 61.712C87.8838 61.3493 88.0118 61.04 88.2678 60.784C88.5344 60.528 88.8544 60.4 89.2278 60.4C89.6011 60.4 89.9158 60.528 90.1718 60.784C90.4278 61.0293 90.5558 61.3387 90.5558 61.712C90.5558 62.0747 90.4278 62.3893 90.1718 62.656C89.9158 62.912 89.6011 63.04 89.2278 63.04ZM88.0598 72V63.824H90.3798V72H88.0598ZM96.2818 72.192C95.0764 72.192 94.1271 71.8133 93.4338 71.056C92.7404 70.2987 92.3938 69.248 92.3938 67.904C92.3938 66.592 92.7404 65.552 93.4338 64.784C94.1378 64.016 95.0871 63.632 96.2818 63.632C97.3698 63.632 98.2551 63.9627 98.9378 64.624C99.6204 65.2853 99.9618 66.2453 99.9618 67.504C99.9618 68.0267 99.9404 68.4267 99.8978 68.704H94.6658C94.6871 69.216 94.8471 69.6 95.1458 69.856C95.4444 70.1013 95.8231 70.224 96.2818 70.224C97.0284 70.224 97.6418 69.936 98.1218 69.36L99.4658 70.704C98.6444 71.696 97.5831 72.192 96.2818 72.192ZM94.6818 66.96H97.7378C97.6204 66.0533 97.1031 65.6 96.1858 65.6C95.7698 65.6 95.4284 65.7227 95.1618 65.968C94.8951 66.2027 94.7351 66.5333 94.6818 66.96ZM101.888 72V63.824H104.208V64.56C104.314 64.3467 104.506 64.1387 104.784 63.936C105.061 63.7333 105.386 63.632 105.76 63.632C106.4 63.632 106.938 63.8613 107.376 64.32L107.072 66.432C106.624 66.0587 106.138 65.872 105.616 65.872C104.677 65.872 104.208 66.4373 104.208 67.568V72H101.888Z" fill="url(#paint1_linear)"/>
<defs>
<linearGradient id="paint0_linear" x1="70.5001" y1="20" x2="70.5001" y2="79" gradientUnits="userSpaceOnUse">
<stop stop-color="#49535E"/>
<stop offset="1" stop-color="#2F3943"/>
</linearGradient>
<linearGradient id="paint1_linear" x1="70.5" y1="79" x2="70.5" y2="20" gradientUnits="userSpaceOnUse">
<stop stop-color="#037164"/>
<stop offset="1" stop-color="#00AC98"/>
</linearGradient>
</defs>
</svg>
