<svg width="140" height="100" viewBox="0 0 140 100" fill="none" xmlns="http://www.w3.org/2000/svg">
<path d="M29.8195 47V30.2H41.8915V33.656H33.4675V36.608H38.1715V40.064H33.4675V43.52H42.3715V47H29.8195ZM52.6848 47V40.616C52.6848 39.624 52.5328 38.912 52.2288 38.48C51.9408 38.032 51.4448 37.808 50.7408 37.808C49.9888 37.808 49.4368 38.032 49.0848 38.48C48.7488 38.928 48.5808 39.624 48.5808 40.568V47H45.1008V34.736H48.5808V35.864C49.3648 34.92 50.4768 34.448 51.9168 34.448C53.0528 34.448 54.0448 34.808 54.8928 35.528C55.7408 36.248 56.1648 37.416 56.1648 39.032V47H52.6848ZM66.5915 34.736H70.0715V44.864C70.0715 45.824 70.0315 46.616 69.9515 47.24C69.8875 47.88 69.7355 48.488 69.4955 49.064C69.2715 49.656 68.9435 50.12 68.5115 50.456C68.0955 50.808 67.5355 51.096 66.8315 51.32C66.1435 51.56 65.2955 51.72 64.2875 51.8L62.2955 48.824C64.0075 48.68 65.1435 48.48 65.7035 48.224C66.2795 47.968 66.5755 47.4 66.5915 46.52C66.0475 47.032 65.2315 47.288 64.1435 47.288C62.5915 47.288 61.3515 46.736 60.4235 45.632C59.5115 44.528 59.0555 42.936 59.0555 40.856C59.0555 38.904 59.5195 37.352 60.4475 36.2C61.3915 35.032 62.6235 34.448 64.1435 34.448C65.1995 34.448 66.0155 34.72 66.5915 35.264V34.736ZM66.5915 43.184V38.6C66.5755 38.584 66.5115 38.528 66.3995 38.432C66.3035 38.32 66.2155 38.24 66.1355 38.192C66.0715 38.144 65.9675 38.088 65.8235 38.024C65.6795 37.944 65.5115 37.888 65.3195 37.856C65.1275 37.824 64.9115 37.808 64.6715 37.808C63.9995 37.808 63.4715 38.072 63.0875 38.6C62.7195 39.128 62.5355 39.88 62.5355 40.856C62.5355 42.904 63.2475 43.928 64.6715 43.928C65.5195 43.928 66.1595 43.68 66.5915 43.184ZM73.7911 47V31.304L77.2711 29.672V47H73.7911ZM82.7596 33.56C82.2156 33.56 81.7436 33.368 81.3436 32.984C80.9436 32.584 80.7436 32.112 80.7436 31.568C80.7436 31.024 80.9356 30.56 81.3196 30.176C81.7196 29.792 82.1996 29.6 82.7596 29.6C83.3196 29.6 83.7916 29.792 84.1756 30.176C84.5596 30.544 84.7516 31.008 84.7516 31.568C84.7516 32.112 84.5596 32.584 84.1756 32.984C83.7916 33.368 83.3196 33.56 82.7596 33.56ZM81.0076 47V34.736H84.4876V47H81.0076ZM92.3086 47.288C91.3006 47.288 90.3326 47.08 89.4046 46.664C88.4766 46.232 87.7646 45.664 87.2686 44.96L89.5006 43.064C89.8366 43.4 90.2686 43.712 90.7966 44C91.3246 44.288 91.8606 44.432 92.4046 44.432C93.5406 44.432 94.1086 44.112 94.1086 43.472C94.1086 43.184 93.9566 42.952 93.6526 42.776C93.3646 42.584 92.8206 42.336 92.0206 42.032C90.5006 41.52 89.3966 40.976 88.7086 40.4C88.0206 39.808 87.6766 38.984 87.6766 37.928C87.6766 36.856 88.1086 36.008 88.9726 35.384C89.8526 34.76 90.9406 34.448 92.2366 34.448C94.0926 34.448 95.6286 35.128 96.8446 36.488L94.5886 38.336C93.8366 37.648 93.0526 37.304 92.2366 37.304C91.2766 37.304 90.7966 37.568 90.7966 38.096C90.7966 38.592 91.5966 39.04 93.1966 39.44C93.7726 39.632 94.2446 39.816 94.6126 39.992C94.9966 40.152 95.4126 40.392 95.8606 40.712C96.3086 41.016 96.6446 41.4 96.8686 41.864C97.1086 42.328 97.2286 42.864 97.2286 43.472C97.2286 44.672 96.7806 45.608 95.8846 46.28C95.0046 46.952 93.8126 47.288 92.3086 47.288ZM100.226 47V31.28L103.706 29.672V35.864C104.49 34.92 105.602 34.448 107.042 34.448C108.178 34.448 109.17 34.808 110.018 35.528C110.866 36.248 111.29 37.416 111.29 39.032V47H107.81V40.424C107.81 39.512 107.658 38.848 107.354 38.432C107.066 38.016 106.57 37.808 105.866 37.808C104.426 37.808 103.706 38.664 103.706 40.376V47H100.226Z" fill="url(#paint0_linear)"/>
<path d="M37.7466 72.16C36.9039 72.16 36.1626 71.9947 35.5226 71.664C34.8932 71.3227 34.4026 70.8693 34.0506 70.304C33.6986 69.7387 33.4372 69.1307 33.2666 68.48C33.1066 67.8293 33.0266 67.136 33.0266 66.4C33.0266 65.728 33.1119 65.072 33.2826 64.432C33.4532 63.7813 33.7146 63.168 34.0666 62.592C34.4186 62.0053 34.9092 61.536 35.5386 61.184C36.1786 60.8213 36.9146 60.64 37.7466 60.64C38.7599 60.64 39.6239 60.9013 40.3386 61.424C41.0532 61.9467 41.5599 62.5813 41.8586 63.328L39.6826 64.304C39.3732 63.8453 39.0746 63.5093 38.7866 63.296C38.5092 63.0827 38.1626 62.976 37.7466 62.976C37.3519 62.976 37.0052 63.0827 36.7066 63.296C36.4079 63.4987 36.1786 63.776 36.0186 64.128C35.8586 64.4693 35.7412 64.832 35.6666 65.216C35.5919 65.5893 35.5546 65.984 35.5546 66.4C35.5546 66.9653 35.6239 67.4987 35.7626 68C35.9119 68.5013 36.1572 68.9333 36.4986 69.296C36.8506 69.648 37.2666 69.824 37.7466 69.824C38.4399 69.824 39.0746 69.344 39.6506 68.384L41.8746 69.216C40.9679 71.1787 39.5919 72.16 37.7466 72.16ZM43.6628 72V61.536L45.9828 60.448V72H43.6628ZM49.6418 63.04C49.2791 63.04 48.9645 62.912 48.6978 62.656C48.4311 62.3893 48.2978 62.0747 48.2978 61.712C48.2978 61.3493 48.4258 61.04 48.6818 60.784C48.9485 60.528 49.2685 60.4 49.6418 60.4C50.0151 60.4 50.3298 60.528 50.5858 60.784C50.8418 61.0293 50.9698 61.3387 50.9698 61.712C50.9698 62.0747 50.8418 62.3893 50.5858 62.656C50.3298 62.912 50.0151 63.04 49.6418 63.04ZM48.4738 72V63.824H50.7938V72H48.4738ZM56.6318 72.192C55.4691 72.192 54.5411 71.8133 53.8478 71.056C53.1545 70.2987 52.8078 69.2533 52.8078 67.92C52.8078 66.608 53.1545 65.568 53.8478 64.8C54.5518 64.0213 55.4798 63.632 56.6318 63.632C58.4878 63.632 59.6825 64.4853 60.2158 66.192L58.0078 66.912C57.7411 66.208 57.2931 65.856 56.6638 65.856C56.2265 65.856 55.8638 66.048 55.5758 66.432C55.2985 66.816 55.1598 67.312 55.1598 67.92C55.1598 68.528 55.2985 69.024 55.5758 69.408C55.8531 69.7813 56.2051 69.968 56.6318 69.968C57.3038 69.968 57.7625 69.5733 58.0078 68.784L60.2318 69.424C59.6878 71.2693 58.4878 72.192 56.6318 72.192ZM69.8551 72H67.3271L65.1671 67.888L64.5591 68.448V72H62.2391V61.536L64.5591 60.448V65.872L66.6231 63.824H69.3751L66.8791 66.24L69.8551 72ZM75.5672 72V61.52L77.8872 60.448V64.576C78.4099 63.9467 79.1512 63.632 80.1112 63.632C80.8685 63.632 81.5299 63.872 82.0952 64.352C82.6605 64.832 82.9432 65.6107 82.9432 66.688V72H80.6232V67.616C80.6232 67.008 80.5219 66.5653 80.3192 66.288C80.1272 66.0107 79.7965 65.872 79.3272 65.872C78.3672 65.872 77.8872 66.4427 77.8872 67.584V72H75.5672ZM88.7583 72.192C87.553 72.192 86.6036 71.8133 85.9103 71.056C85.217 70.2987 84.8703 69.248 84.8703 67.904C84.8703 66.592 85.217 65.552 85.9103 64.784C86.6143 64.016 87.5636 63.632 88.7583 63.632C89.8463 63.632 90.7316 63.9627 91.4143 64.624C92.097 65.2853 92.4383 66.2453 92.4383 67.504C92.4383 68.0267 92.417 68.4267 92.3743 68.704H87.1423C87.1636 69.216 87.3236 69.6 87.6223 69.856C87.921 70.1013 88.2996 70.224 88.7583 70.224C89.505 70.224 90.1183 69.936 90.5983 69.36L91.9423 70.704C91.121 71.696 90.0596 72.192 88.7583 72.192ZM87.1583 66.96H90.2143C90.097 66.0533 89.5796 65.6 88.6623 65.6C88.2463 65.6 87.905 65.7227 87.6383 65.968C87.3716 66.2027 87.2116 66.5333 87.1583 66.96ZM94.3641 72V63.824H96.6841V64.56C96.7907 64.3467 96.9827 64.1387 97.2601 63.936C97.5374 63.7333 97.8627 63.632 98.2361 63.632C98.8761 63.632 99.4147 63.8613 99.8521 64.32L99.5481 66.432C99.1001 66.0587 98.6147 65.872 98.0921 65.872C97.1534 65.872 96.6841 66.4373 96.6841 67.568V72H94.3641ZM104.368 72.192C103.162 72.192 102.213 71.8133 101.52 71.056C100.826 70.2987 100.48 69.248 100.48 67.904C100.48 66.592 100.826 65.552 101.52 64.784C102.224 64.016 103.173 63.632 104.368 63.632C105.456 63.632 106.341 63.9627 107.024 64.624C107.706 65.2853 108.048 66.2453 108.048 67.504C108.048 68.0267 108.026 68.4267 107.984 68.704H102.752C102.773 69.216 102.933 69.6 103.232 69.856C103.53 70.1013 103.909 70.224 104.368 70.224C105.114 70.224 105.728 69.936 106.208 69.36L107.552 70.704C106.73 71.696 105.669 72.192 104.368 72.192ZM102.768 66.96H105.824C105.706 66.0533 105.189 65.6 104.272 65.6C103.856 65.6 103.514 65.7227 103.248 65.968C102.981 66.2027 102.821 66.5333 102.768 66.96Z" fill="url(#paint1_linear)"/>
<defs>
<linearGradient id="paint0_linear" x1="43.9121" y1="20.2709" x2="44.0316" y2="78.9257" gradientUnits="userSpaceOnUse">
<stop stop-color="#07B3FF"/>
<stop offset="1" stop-color="#007DE8"/>
</linearGradient>
<linearGradient id="paint1_linear" x1="70.5" y1="79" x2="70.5" y2="20" gradientUnits="userSpaceOnUse">
<stop stop-color="#037164"/>
<stop offset="1" stop-color="#00AC98"/>
</linearGradient>
</defs>
</svg>
