<svg width="140" height="100" viewBox="0 0 140 100" fill="none" xmlns="http://www.w3.org/2000/svg">
<path d="M27.1008 47V30.2H39.1728V33.656H30.7488V36.608H35.4528V40.064H30.7488V43.52H39.6528V47H27.1008ZM46.207 47.288C45.199 47.288 44.231 47.08 43.303 46.664C42.375 46.232 41.663 45.664 41.167 44.96L43.399 43.064C43.735 43.4 44.167 43.712 44.695 44C45.223 44.288 45.759 44.432 46.303 44.432C47.439 44.432 48.007 44.112 48.007 43.472C48.007 43.184 47.855 42.952 47.551 42.776C47.263 42.584 46.719 42.336 45.919 42.032C44.399 41.52 43.295 40.976 42.607 40.4C41.919 39.808 41.575 38.984 41.575 37.928C41.575 36.856 42.007 36.008 42.871 35.384C43.751 34.76 44.839 34.448 46.135 34.448C47.991 34.448 49.527 35.128 50.743 36.488L48.487 38.336C47.735 37.648 46.951 37.304 46.135 37.304C45.175 37.304 44.695 37.568 44.695 38.096C44.695 38.592 45.495 39.04 47.095 39.44C47.671 39.632 48.143 39.816 48.511 39.992C48.895 40.152 49.311 40.392 49.759 40.712C50.207 41.016 50.543 41.4 50.767 41.864C51.007 42.328 51.127 42.864 51.127 43.472C51.127 44.672 50.679 45.608 49.783 46.28C48.903 46.952 47.711 47.288 46.207 47.288ZM60.0282 47.288C58.9722 47.288 58.1642 46.928 57.6042 46.208V50.216L54.1242 51.776V34.736H57.6042V35.576C58.1482 34.824 58.9722 34.448 60.0762 34.448C61.6122 34.448 62.8362 35.008 63.7482 36.128C64.6762 37.232 65.1402 38.816 65.1402 40.88C65.1402 42.848 64.6602 44.408 63.7002 45.56C62.7402 46.712 61.5162 47.288 60.0282 47.288ZM59.4762 43.928C60.1642 43.928 60.7002 43.664 61.0842 43.136C61.4682 42.592 61.6602 41.84 61.6602 40.88C61.6602 38.832 60.9322 37.808 59.4762 37.808C58.6922 37.808 58.0682 38.056 57.6042 38.552V43.136C57.7002 43.344 57.9162 43.528 58.2522 43.688C58.5882 43.848 58.9962 43.928 59.4762 43.928ZM75.0758 47V46.088C74.3398 46.888 73.3238 47.288 72.0278 47.288C70.6678 47.288 69.5558 46.944 68.6918 46.256C67.8438 45.552 67.4198 44.552 67.4198 43.256C67.4198 41.992 67.9158 41.024 68.9078 40.352C69.8998 39.664 71.0598 39.32 72.3878 39.32C73.5398 39.32 74.4358 39.464 75.0758 39.752V39.08C75.0758 38.52 74.8998 38.096 74.5478 37.808C74.1958 37.504 73.7078 37.352 73.0838 37.352C71.7558 37.352 70.4438 37.784 69.1478 38.648L68.0678 35.984C69.5718 34.96 71.3238 34.448 73.3238 34.448C76.7958 34.448 78.5318 36.048 78.5318 39.248V47H75.0758ZM72.6998 44.36C73.5638 44.36 74.3558 44.072 75.0758 43.496V42.392C74.4358 42.2 73.7398 42.104 72.9878 42.104C71.5478 42.104 70.8278 42.496 70.8278 43.28C70.8278 44 71.4518 44.36 72.6998 44.36ZM89.4337 33.056C88.8257 33.056 88.0977 32.88 87.2497 32.528C86.4177 32.16 85.8257 31.976 85.4737 31.976C84.7217 31.976 84.3457 32.304 84.3457 32.96H82.7377C82.7377 30.688 83.7057 29.552 85.6417 29.552C86.2657 29.552 86.9857 29.728 87.8017 30.08C88.6337 30.432 89.2337 30.608 89.6017 30.608C90.3537 30.608 90.7297 30.288 90.7297 29.648H92.3137C92.3137 31.92 91.3537 33.056 89.4337 33.056ZM89.4817 47V40.616C89.4817 39.624 89.3297 38.912 89.0257 38.48C88.7377 38.032 88.2417 37.808 87.5377 37.808C86.7857 37.808 86.2337 38.032 85.8817 38.48C85.5457 38.928 85.3777 39.624 85.3777 40.568V47H81.8977V34.736H85.3777V35.864C86.1617 34.92 87.2737 34.448 88.7137 34.448C89.8497 34.448 90.8417 34.808 91.6897 35.528C92.5377 36.248 92.9617 37.416 92.9617 39.032V47H89.4817ZM101.54 47.288C99.7803 47.288 98.3883 46.72 97.3643 45.584C96.3563 44.448 95.8523 42.88 95.8523 40.88C95.8523 38.896 96.3643 37.328 97.3883 36.176C98.4123 35.024 99.7963 34.448 101.54 34.448C103.268 34.448 104.636 35.024 105.644 36.176C106.668 37.328 107.18 38.896 107.18 40.88C107.18 42.88 106.676 44.448 105.668 45.584C104.66 46.72 103.284 47.288 101.54 47.288ZM101.54 43.928C102.228 43.928 102.756 43.664 103.124 43.136C103.508 42.592 103.7 41.84 103.7 40.88C103.7 39.92 103.508 39.168 103.124 38.624C102.756 38.08 102.228 37.808 101.54 37.808C100.868 37.808 100.332 38.08 99.9323 38.624C99.5323 39.168 99.3323 39.92 99.3323 40.88C99.3323 41.84 99.5323 42.592 99.9323 43.136C100.332 43.664 100.868 43.928 101.54 43.928ZM110.307 47V31.304L113.787 29.672V47H110.307Z" fill="url(#paint0_linear)"/>
<path d="M24.4237 72V67.408H19.9758V72H17.5438V60.8H19.9758V65.088H24.4237V60.8H26.8718V72H24.4237ZM33.8865 72V71.392C33.3958 71.9253 32.7185 72.192 31.8545 72.192C30.9478 72.192 30.2065 71.9627 29.6305 71.504C29.0652 71.0347 28.7825 70.368 28.7825 69.504C28.7825 68.6613 29.1132 68.016 29.7745 67.568C30.4358 67.1093 31.2092 66.88 32.0945 66.88C32.8625 66.88 33.4598 66.976 33.8865 67.168V66.72C33.8865 66.3467 33.7692 66.064 33.5345 65.872C33.2998 65.6693 32.9745 65.568 32.5585 65.568C31.6732 65.568 30.7985 65.856 29.9345 66.432L29.2145 64.656C30.2172 63.9733 31.3852 63.632 32.7185 63.632C35.0332 63.632 36.1905 64.6987 36.1905 66.832V72H33.8865ZM32.3025 70.24C32.8785 70.24 33.4065 70.048 33.8865 69.664V68.928C33.4598 68.8 32.9958 68.736 32.4945 68.736C31.5345 68.736 31.0545 68.9973 31.0545 69.52C31.0545 70 31.4705 70.24 32.3025 70.24ZM43.0584 63.824H45.3784V70.576C45.3784 71.216 45.3517 71.744 45.2984 72.16C45.2557 72.5867 45.1544 72.992 44.9944 73.376C44.845 73.7707 44.6264 74.08 44.3384 74.304C44.061 74.5387 43.6877 74.7307 43.2184 74.88C42.7597 75.04 42.1944 75.1467 41.5224 75.2L40.1944 73.216C41.3357 73.12 42.093 72.9867 42.4664 72.816C42.8504 72.6453 43.0477 72.2667 43.0584 71.68C42.6957 72.0213 42.1517 72.192 41.4264 72.192C40.3917 72.192 39.565 71.824 38.9464 71.088C38.3384 70.352 38.0344 69.2907 38.0344 67.904C38.0344 66.6027 38.3437 65.568 38.9624 64.8C39.5917 64.0213 40.413 63.632 41.4264 63.632C42.1304 63.632 42.6744 63.8133 43.0584 64.176V63.824ZM43.0584 69.456V66.4C43.0477 66.3893 43.005 66.352 42.9304 66.288C42.8664 66.2133 42.8077 66.16 42.7544 66.128C42.7117 66.096 42.6424 66.0587 42.5464 66.016C42.4504 65.9627 42.3384 65.9253 42.2104 65.904C42.0824 65.8827 41.9384 65.872 41.7784 65.872C41.3304 65.872 40.9784 66.048 40.7224 66.4C40.477 66.752 40.3544 67.2533 40.3544 67.904C40.3544 69.2693 40.829 69.952 41.7784 69.952C42.3437 69.952 42.7704 69.7867 43.0584 69.456ZM52.4021 72V71.392C51.9115 71.9253 51.2341 72.192 50.3701 72.192C49.4635 72.192 48.7221 71.9627 48.1461 71.504C47.5808 71.0347 47.2981 70.368 47.2981 69.504C47.2981 68.6613 47.6288 68.016 48.2901 67.568C48.9515 67.1093 49.7248 66.88 50.6101 66.88C51.3781 66.88 51.9755 66.976 52.4021 67.168V66.72C52.4021 66.3467 52.2848 66.064 52.0501 65.872C51.8155 65.6693 51.4901 65.568 51.0741 65.568C50.1888 65.568 49.3141 65.856 48.4501 66.432L47.7301 64.656C48.7328 63.9733 49.9008 63.632 51.2341 63.632C53.5488 63.632 54.7061 64.6987 54.7061 66.832V72H52.4021ZM50.8181 70.24C51.3941 70.24 51.9221 70.048 52.4021 69.664V68.928C51.9755 68.8 51.5115 68.736 51.0101 68.736C50.0501 68.736 49.5701 68.9973 49.5701 69.52C49.5701 70 49.9861 70.24 50.8181 70.24ZM64.499 72.192C63.3363 72.192 62.4083 71.8133 61.715 71.056C61.0217 70.2987 60.675 69.2533 60.675 67.92C60.675 66.608 61.0217 65.568 61.715 64.8C62.419 64.0213 63.347 63.632 64.499 63.632C66.355 63.632 67.5497 64.4853 68.083 66.192L65.875 66.912C65.6083 66.208 65.1603 65.856 64.531 65.856C64.0937 65.856 63.731 66.048 63.443 66.432C63.1657 66.816 63.027 67.312 63.027 67.92C63.027 68.528 63.1657 69.024 63.443 69.408C63.7203 69.7813 64.0723 69.968 64.499 69.968C65.171 69.968 65.6297 69.5733 65.875 68.784L68.099 69.424C67.555 71.2693 66.355 72.192 64.499 72.192ZM70.1863 72V61.536L72.5063 60.448V72H70.1863ZM76.1653 63.04C75.8026 63.04 75.4879 62.912 75.2213 62.656C74.9546 62.3893 74.8213 62.0747 74.8213 61.712C74.8213 61.3493 74.9493 61.04 75.2053 60.784C75.4719 60.528 75.7919 60.4 76.1653 60.4C76.5386 60.4 76.8533 60.528 77.1093 60.784C77.3653 61.0293 77.4933 61.3387 77.4933 61.712C77.4933 62.0747 77.3653 62.3893 77.1093 62.656C76.8533 62.912 76.5386 63.04 76.1653 63.04ZM74.9973 72V63.824H77.3173V72H74.9973ZM83.1553 72.192C81.9926 72.192 81.0646 71.8133 80.3713 71.056C79.6779 70.2987 79.3313 69.2533 79.3313 67.92C79.3313 66.608 79.6779 65.568 80.3713 64.8C81.0753 64.0213 82.0033 63.632 83.1553 63.632C85.0113 63.632 86.2059 64.4853 86.7393 66.192L84.5313 66.912C84.2646 66.208 83.8166 65.856 83.1873 65.856C82.7499 65.856 82.3873 66.048 82.0993 66.432C81.8219 66.816 81.6833 67.312 81.6833 67.92C81.6833 68.528 81.8219 69.024 82.0993 69.408C82.3766 69.7813 82.7286 69.968 83.1553 69.968C83.8273 69.968 84.2859 69.5733 84.5313 68.784L86.7552 69.424C86.2113 71.2693 85.0113 72.192 83.1553 72.192ZM97.5115 72V71.392C97.0208 71.9253 96.3435 72.192 95.4795 72.192C94.5728 72.192 93.8315 71.9627 93.2555 71.504C92.6902 71.0347 92.4075 70.368 92.4075 69.504C92.4075 68.6613 92.7382 68.016 93.3995 67.568C94.0608 67.1093 94.8342 66.88 95.7195 66.88C96.4875 66.88 97.0848 66.976 97.5115 67.168V66.72C97.5115 66.3467 97.3942 66.064 97.1595 65.872C96.9248 65.6693 96.5995 65.568 96.1835 65.568C95.2982 65.568 94.4235 65.856 93.5595 66.432L92.8395 64.656C93.8422 63.9733 95.0102 63.632 96.3435 63.632C98.6582 63.632 99.8155 64.6987 99.8155 66.832V72H97.5115ZM95.9275 70.24C96.5035 70.24 97.0315 70.048 97.5115 69.664V68.928C97.0848 68.8 96.6208 68.736 96.1195 68.736C95.1595 68.736 94.6795 68.9973 94.6795 69.52C94.6795 70 95.0955 70.24 95.9275 70.24ZM105.051 72.192C104.07 72.192 103.259 71.808 102.619 71.04C101.979 70.272 101.659 69.232 101.659 67.92C101.659 66.5547 101.979 65.4987 102.619 64.752C103.27 64.0053 104.123 63.632 105.179 63.632C105.883 63.632 106.385 63.8827 106.683 64.384V63.824H109.003V74.144L106.683 75.2V71.472C106.31 71.952 105.766 72.192 105.051 72.192ZM105.435 69.952C106.097 69.952 106.513 69.776 106.683 69.424V66.368C106.374 66.0373 105.958 65.872 105.435 65.872C104.955 65.872 104.593 66.0533 104.347 66.416C104.102 66.768 103.979 67.2693 103.979 67.92C103.979 68.56 104.107 69.0613 104.363 69.424C104.619 69.776 104.977 69.952 105.435 69.952ZM116.379 72V71.248C115.867 71.8773 115.12 72.192 114.139 72.192C113.808 72.192 113.488 72.1387 113.179 72.032C112.87 71.936 112.571 71.776 112.283 71.552C111.995 71.328 111.76 71.008 111.579 70.592C111.408 70.176 111.323 69.6907 111.323 69.136V63.824H113.643V68.08C113.643 68.7307 113.739 69.2053 113.931 69.504C114.123 69.8027 114.464 69.952 114.955 69.952C115.446 69.952 115.803 69.8027 116.027 69.504C116.262 69.2053 116.379 68.7413 116.379 68.112V63.824H118.699V72H116.379ZM120.402 62.784L122.674 60.288H125.442L122.594 62.784H120.402ZM121.122 72V63.824H123.442V72H121.122Z" fill="url(#paint1_linear)"/>
<defs>
<linearGradient id="paint0_linear" x1="16" y1="20" x2="16" y2="79" gradientUnits="userSpaceOnUse">
<stop offset="1e-07" stop-color="#FFD057"/>
<stop offset="0.5" stop-color="#FFA851"/>
<stop offset="1" stop-color="#F5820F"/>
</linearGradient>
<linearGradient id="paint1_linear" x1="70.5" y1="79" x2="70.5" y2="20" gradientUnits="userSpaceOnUse">
<stop stop-color="#037164"/>
<stop offset="1" stop-color="#00AC98"/>
</linearGradient>
</defs>
</svg>
