<svg width="140" height="100" viewBox="0 0 140 100" fill="none" xmlns="http://www.w3.org/2000/svg">
<path d="M23.2961 48V31.2H35.0081V34.656H26.9441V37.608H32.0081V41.064H26.9441V48H23.2961ZM35.3195 48V35.736H38.7995V36.84C38.9595 36.52 39.2475 36.208 39.6635 35.904C40.0795 35.6 40.5675 35.448 41.1275 35.448C42.0875 35.448 42.8955 35.792 43.5515 36.48L43.0955 39.648C42.4235 39.088 41.6955 38.808 40.9115 38.808C39.5035 38.808 38.7995 39.656 38.7995 41.352V48H35.3195ZM52.4508 48V47.088C51.7148 47.888 50.6988 48.288 49.4028 48.288C48.0428 48.288 46.9308 47.944 46.0668 47.256C45.2188 46.552 44.7948 45.552 44.7948 44.256C44.7948 42.992 45.2908 42.024 46.2828 41.352C47.2748 40.664 48.4348 40.32 49.7628 40.32C50.9148 40.32 51.8108 40.464 52.4508 40.752V40.08C52.4508 39.52 52.2748 39.096 51.9228 38.808C51.5708 38.504 51.0828 38.352 50.4588 38.352C49.1308 38.352 47.8188 38.784 46.5228 39.648L45.4428 36.984C46.9468 35.96 48.6988 35.448 50.6988 35.448C54.1708 35.448 55.9068 37.048 55.9068 40.248V48H52.4508ZM50.0748 45.36C50.9388 45.36 51.7308 45.072 52.4508 44.496V43.392C51.8108 43.2 51.1148 43.104 50.3628 43.104C48.9228 43.104 48.2028 43.496 48.2028 44.28C48.2028 45 48.8268 45.36 50.0748 45.36ZM66.8567 48V41.616C66.8567 40.624 66.7047 39.912 66.4007 39.48C66.1127 39.032 65.6167 38.808 64.9127 38.808C64.1607 38.808 63.6087 39.032 63.2567 39.48C62.9207 39.928 62.7527 40.624 62.7527 41.568V48H59.2727V35.736H62.7527V36.864C63.5367 35.92 64.6487 35.448 66.0887 35.448C67.2247 35.448 68.2167 35.808 69.0647 36.528C69.9127 37.248 70.3367 38.416 70.3367 40.032V48H66.8567ZM78.4833 53.928C77.2033 53.928 76.2833 53.512 75.7233 52.68L77.1393 51.6C77.3633 51.936 77.6913 52.104 78.1233 52.104C78.8913 52.104 79.2753 51.816 79.2753 51.24C79.2753 50.648 78.8993 50.352 78.1473 50.352C77.8433 50.352 77.4833 50.488 77.0673 50.76L76.3473 49.848L77.7393 48.168C76.3473 47.944 75.2433 47.28 74.4273 46.176C73.6273 45.056 73.2273 43.624 73.2273 41.88C73.2273 39.912 73.7473 38.352 74.7873 37.2C75.8433 36.032 77.2353 35.448 78.9633 35.448C81.7473 35.448 83.5393 36.728 84.3393 39.288L81.0273 40.368C80.6273 39.312 79.9553 38.784 79.0113 38.784C78.3553 38.784 77.8113 39.072 77.3793 39.648C76.9633 40.224 76.7553 40.968 76.7553 41.88C76.7553 42.792 76.9633 43.536 77.3793 44.112C77.7953 44.672 78.3233 44.952 78.9633 44.952C79.9713 44.952 80.6593 44.36 81.0273 43.176L84.3633 44.136C83.6593 46.648 82.0833 48.024 79.6353 48.264L79.1313 49.056C80.0433 49.056 80.7313 49.256 81.1953 49.656C81.6593 50.056 81.8913 50.592 81.8913 51.264C81.8913 52.064 81.5953 52.704 81.0033 53.184C80.4113 53.68 79.5713 53.928 78.4833 53.928ZM94.2399 48V47.088C93.5039 47.888 92.4879 48.288 91.1919 48.288C89.8319 48.288 88.7199 47.944 87.8559 47.256C87.0079 46.552 86.5839 45.552 86.5839 44.256C86.5839 42.992 87.0799 42.024 88.0719 41.352C89.0639 40.664 90.2239 40.32 91.5519 40.32C92.7039 40.32 93.5999 40.464 94.2399 40.752V40.08C94.2399 39.52 94.0639 39.096 93.7119 38.808C93.3599 38.504 92.8719 38.352 92.2479 38.352C90.9199 38.352 89.6079 38.784 88.3119 39.648L87.2319 36.984C88.7359 35.96 90.4879 35.448 92.4879 35.448C95.9599 35.448 97.6959 37.048 97.6959 40.248V48H94.2399ZM91.8639 45.36C92.7279 45.36 93.5199 45.072 94.2399 44.496V43.392C93.5999 43.2 92.9039 43.104 92.1519 43.104C90.7119 43.104 89.9919 43.496 89.9919 44.28C89.9919 45 90.6159 45.36 91.8639 45.36ZM102.838 34.56C102.294 34.56 101.822 34.368 101.422 33.984C101.022 33.584 100.822 33.112 100.822 32.568C100.822 32.024 101.014 31.56 101.398 31.176C101.798 30.792 102.278 30.6 102.838 30.6C103.398 30.6 103.87 30.792 104.254 31.176C104.638 31.544 104.83 32.008 104.83 32.568C104.83 33.112 104.638 33.584 104.254 33.984C103.87 34.368 103.398 34.56 102.838 34.56ZM101.086 48V35.736H104.566V48H101.086ZM112.387 48.288C111.379 48.288 110.411 48.08 109.483 47.664C108.555 47.232 107.843 46.664 107.347 45.96L109.579 44.064C109.915 44.4 110.347 44.712 110.875 45C111.403 45.288 111.939 45.432 112.483 45.432C113.619 45.432 114.187 45.112 114.187 44.472C114.187 44.184 114.035 43.952 113.731 43.776C113.443 43.584 112.899 43.336 112.099 43.032C110.579 42.52 109.475 41.976 108.787 41.4C108.099 40.808 107.755 39.984 107.755 38.928C107.755 37.856 108.187 37.008 109.051 36.384C109.931 35.76 111.019 35.448 112.315 35.448C114.171 35.448 115.707 36.128 116.923 37.488L114.667 39.336C113.915 38.648 113.131 38.304 112.315 38.304C111.355 38.304 110.875 38.568 110.875 39.096C110.875 39.592 111.675 40.04 113.275 40.44C113.851 40.632 114.323 40.816 114.691 40.992C115.075 41.152 115.491 41.392 115.939 41.712C116.387 42.016 116.723 42.4 116.947 42.864C117.187 43.328 117.307 43.864 117.307 44.472C117.307 45.672 116.859 46.608 115.963 47.28C115.083 47.952 113.891 48.288 112.387 48.288Z" fill="url(#paint0_linear)"/>
<path d="M35.7856 73.16C34.943 73.16 34.2016 72.9947 33.5616 72.664C32.9323 72.3227 32.4416 71.8693 32.0896 71.304C31.7376 70.7387 31.4763 70.1307 31.3056 69.48C31.1456 68.8293 31.0656 68.136 31.0656 67.4C31.0656 66.728 31.151 66.072 31.3216 65.432C31.4923 64.7813 31.7536 64.168 32.1056 63.592C32.4576 63.0053 32.9483 62.536 33.5776 62.184C34.2176 61.8213 34.9536 61.64 35.7856 61.64C36.799 61.64 37.663 61.9013 38.3776 62.424C39.0923 62.9467 39.599 63.5813 39.8976 64.328L37.7216 65.304C37.4123 64.8453 37.1136 64.5093 36.8256 64.296C36.5483 64.0827 36.2016 63.976 35.7856 63.976C35.391 63.976 35.0443 64.0827 34.7456 64.296C34.447 64.4987 34.2176 64.776 34.0576 65.128C33.8976 65.4693 33.7803 65.832 33.7056 66.216C33.631 66.5893 33.5936 66.984 33.5936 67.4C33.5936 67.9653 33.663 68.4987 33.8016 69C33.951 69.5013 34.1963 69.9333 34.5376 70.296C34.8896 70.648 35.3056 70.824 35.7856 70.824C36.479 70.824 37.1136 70.344 37.6896 69.384L39.9136 70.216C39.007 72.1787 37.631 73.16 35.7856 73.16ZM41.7019 73V62.536L44.0219 61.448V73H41.7019ZM47.6809 64.04C47.3182 64.04 47.0035 63.912 46.7369 63.656C46.4702 63.3893 46.3369 63.0747 46.3369 62.712C46.3369 62.3493 46.4649 62.04 46.7209 61.784C46.9875 61.528 47.3075 61.4 47.6809 61.4C48.0542 61.4 48.3689 61.528 48.6249 61.784C48.8809 62.0293 49.0089 62.3387 49.0089 62.712C49.0089 63.0747 48.8809 63.3893 48.6249 63.656C48.3689 63.912 48.0542 64.04 47.6809 64.04ZM46.5129 73V64.824H48.8329V73H46.5129ZM54.2389 73.192C53.2575 73.192 52.4469 72.808 51.8069 72.04C51.1669 71.272 50.8469 70.232 50.8469 68.92C50.8469 67.5547 51.1669 66.4987 51.8069 65.752C52.4575 65.0053 53.3109 64.632 54.3669 64.632C55.0709 64.632 55.5722 64.8827 55.8709 65.384V64.824H58.1909V75.144L55.8709 76.2V72.472C55.4975 72.952 54.9535 73.192 54.2389 73.192ZM54.6229 70.952C55.2842 70.952 55.7002 70.776 55.8709 70.424V67.368C55.5615 67.0373 55.1455 66.872 54.6229 66.872C54.1429 66.872 53.7802 67.0533 53.5349 67.416C53.2895 67.768 53.1669 68.2693 53.1669 68.92C53.1669 69.56 53.2949 70.0613 53.5509 70.424C53.8069 70.776 54.1642 70.952 54.6229 70.952ZM65.5666 73V72.248C65.0546 72.8773 64.308 73.192 63.3266 73.192C62.996 73.192 62.676 73.1387 62.3666 73.032C62.0573 72.936 61.7586 72.776 61.4706 72.552C61.1826 72.328 60.948 72.008 60.7666 71.592C60.596 71.176 60.5106 70.6907 60.5106 70.136V64.824H62.8306V69.08C62.8306 69.7307 62.9266 70.2053 63.1186 70.504C63.3106 70.8027 63.652 70.952 64.1426 70.952C64.6333 70.952 64.9906 70.8027 65.2146 70.504C65.4493 70.2053 65.5666 69.7413 65.5666 69.112V64.824H67.8866V73H65.5666ZM73.7818 73.192C72.5764 73.192 71.6271 72.8133 70.9338 72.056C70.2404 71.2987 69.8938 70.248 69.8938 68.904C69.8938 67.592 70.2404 66.552 70.9338 65.784C71.6378 65.016 72.5871 64.632 73.7818 64.632C74.8698 64.632 75.7551 64.9627 76.4378 65.624C77.1204 66.2853 77.4618 67.2453 77.4618 68.504C77.4618 69.0267 77.4404 69.4267 77.3978 69.704H72.1658C72.1871 70.216 72.3471 70.6 72.6458 70.856C72.9444 71.1013 73.3231 71.224 73.7818 71.224C74.5284 71.224 75.1418 70.936 75.6218 70.36L76.9658 71.704C76.1444 72.696 75.0831 73.192 73.7818 73.192ZM72.1818 67.96H75.2378C75.1204 67.0533 74.6031 66.6 73.6858 66.6C73.2698 66.6 72.9284 66.7227 72.6618 66.968C72.3951 67.2027 72.2351 67.5333 72.1818 67.96ZM78.9425 73V71.208L83.1025 66.888H79.2305V64.824H86.1105V66.568L81.9665 70.92H86.0945V73H78.9425ZM93.5871 64.04C93.2245 64.04 92.9098 63.912 92.6431 63.656C92.3765 63.3893 92.2431 63.0747 92.2431 62.712C92.2431 62.3493 92.3711 62.04 92.6271 61.784C92.8938 61.528 93.2138 61.4 93.5871 61.4C93.9605 61.4 94.2751 61.528 94.5311 61.784C94.7871 62.0293 94.9151 62.3387 94.9151 62.712C94.9151 63.0747 94.7871 63.3893 94.5311 63.656C94.2751 63.912 93.9605 64.04 93.5871 64.04ZM92.4191 73V64.824H94.7391V73H92.4191ZM100.577 73.192C99.4145 73.192 98.4865 72.8133 97.7931 72.056C97.0998 71.2987 96.7531 70.2533 96.7531 68.92C96.7531 67.608 97.0998 66.568 97.7931 65.8C98.4971 65.0213 99.4251 64.632 100.577 64.632C102.433 64.632 103.628 65.4853 104.161 67.192L101.953 67.912C101.686 67.208 101.238 66.856 100.609 66.856C100.172 66.856 99.8091 67.048 99.5211 67.432C99.2438 67.816 99.1051 68.312 99.1051 68.92C99.1051 69.528 99.2438 70.024 99.5211 70.408C99.7985 70.7813 100.15 70.968 100.577 70.968C101.249 70.968 101.708 70.5733 101.953 69.784L104.177 70.424C103.633 72.2693 102.433 73.192 100.577 73.192ZM107.368 64.04C107.006 64.04 106.691 63.912 106.424 63.656C106.158 63.3893 106.024 63.0747 106.024 62.712C106.024 62.3493 106.152 62.04 106.408 61.784C106.675 61.528 106.995 61.4 107.368 61.4C107.742 61.4 108.056 61.528 108.312 61.784C108.568 62.0293 108.696 62.3387 108.696 62.712C108.696 63.0747 108.568 63.3893 108.312 63.656C108.056 63.912 107.742 64.04 107.368 64.04ZM106.2 73V64.824H108.52V73H106.2Z" fill="url(#paint1_linear)"/>
<defs>
<linearGradient id="paint0_linear" x1="21" y1="21" x2="21" y2="80" gradientUnits="userSpaceOnUse">
<stop offset="1e-07" stop-color="#00CCDA"/>
<stop offset="0.142857" stop-color="#0083FF"/>
<stop offset="0.285714" stop-color="#007AF9"/>
<stop offset="0.428571" stop-color="#0060E8"/>
<stop offset="0.571429" stop-color="#005FE7"/>
<stop offset="0.714286" stop-color="#2639AD"/>
<stop offset="0.857143" stop-color="#401E84"/>
<stop offset="1" stop-color="#4A1475"/>
</linearGradient>
<linearGradient id="paint1_linear" x1="70" y1="80" x2="70" y2="21" gradientUnits="userSpaceOnUse">
<stop stop-color="#037164"/>
<stop offset="1" stop-color="#00AC98"/>
</linearGradient>
</defs>
</svg>
