<svg width="140" height="100" viewBox="0 0 140 100" fill="none" xmlns="http://www.w3.org/2000/svg">
<path d="M28.2911 48V31.2H31.9391V48H28.2911ZM39.3202 48.288C37.2562 48.288 36.2242 47.168 36.2242 44.928V38.784H34.5442V35.736H36.2242V32.328L39.6802 30.672V35.736H42.3442V38.784H39.6802V44.592C39.6802 44.816 39.7442 44.992 39.8722 45.12C40.0162 45.232 40.1842 45.288 40.3762 45.288C41.0802 45.288 41.7842 45.128 42.4882 44.808L42.1042 47.736C41.3522 48.104 40.4242 48.288 39.3202 48.288ZM52.1227 48V47.088C51.3867 47.888 50.3707 48.288 49.0747 48.288C47.7147 48.288 46.6027 47.944 45.7387 47.256C44.8907 46.552 44.4667 45.552 44.4667 44.256C44.4667 42.992 44.9627 42.024 45.9547 41.352C46.9467 40.664 48.1067 40.32 49.4347 40.32C50.5867 40.32 51.4827 40.464 52.1227 40.752V40.08C52.1227 39.52 51.9467 39.096 51.5947 38.808C51.2427 38.504 50.7547 38.352 50.1307 38.352C48.8027 38.352 47.4907 38.784 46.1947 39.648L45.1147 36.984C46.6187 35.96 48.3707 35.448 50.3707 35.448C53.8427 35.448 55.5787 37.048 55.5787 40.248V48H52.1227ZM49.7467 45.36C50.6107 45.36 51.4027 45.072 52.1227 44.496V43.392C51.4827 43.2 50.7867 43.104 50.0347 43.104C48.5947 43.104 47.8747 43.496 47.8747 44.28C47.8747 45 48.4987 45.36 49.7467 45.36ZM59.0645 48V32.304L62.5445 30.672V48H59.0645ZM68.033 34.56C67.489 34.56 67.017 34.368 66.617 33.984C66.217 33.584 66.017 33.112 66.017 32.568C66.017 32.024 66.209 31.56 66.593 31.176C66.993 30.792 67.473 30.6 68.033 30.6C68.593 30.6 69.065 30.792 69.449 31.176C69.833 31.544 70.025 32.008 70.025 32.568C70.025 33.112 69.833 33.584 69.449 33.984C69.065 34.368 68.593 34.56 68.033 34.56ZM66.281 48V35.736H69.761V48H66.281ZM80.318 48V47.088C79.582 47.888 78.566 48.288 77.27 48.288C75.91 48.288 74.798 47.944 73.934 47.256C73.086 46.552 72.662 45.552 72.662 44.256C72.662 42.992 73.158 42.024 74.15 41.352C75.142 40.664 76.302 40.32 77.63 40.32C78.782 40.32 79.678 40.464 80.318 40.752V40.08C80.318 39.52 80.142 39.096 79.79 38.808C79.438 38.504 78.95 38.352 78.326 38.352C76.998 38.352 75.686 38.784 74.39 39.648L73.31 36.984C74.814 35.96 76.566 35.448 78.566 35.448C82.038 35.448 83.774 37.048 83.774 40.248V48H80.318ZM77.942 45.36C78.806 45.36 79.598 45.072 80.318 44.496V43.392C79.678 43.2 78.982 43.104 78.23 43.104C76.79 43.104 76.07 43.496 76.07 44.28C76.07 45 76.694 45.36 77.942 45.36ZM94.7238 48V41.616C94.7238 40.624 94.5718 39.912 94.2678 39.48C93.9798 39.032 93.4838 38.808 92.7798 38.808C92.0278 38.808 91.4758 39.032 91.1238 39.48C90.7878 39.928 90.6198 40.624 90.6198 41.568V48H87.1398V35.736H90.6198V36.864C91.4038 35.92 92.5158 35.448 93.9558 35.448C95.0918 35.448 96.0838 35.808 96.9318 36.528C97.7798 37.248 98.2038 38.416 98.2038 40.032V48H94.7238ZM106.783 48.288C105.023 48.288 103.631 47.72 102.607 46.584C101.599 45.448 101.095 43.88 101.095 41.88C101.095 39.896 101.607 38.328 102.631 37.176C103.655 36.024 105.039 35.448 106.783 35.448C108.511 35.448 109.879 36.024 110.887 37.176C111.911 38.328 112.423 39.896 112.423 41.88C112.423 43.88 111.919 45.448 110.911 46.584C109.903 47.72 108.527 48.288 106.783 48.288ZM106.783 44.928C107.471 44.928 107.999 44.664 108.367 44.136C108.751 43.592 108.943 42.84 108.943 41.88C108.943 40.92 108.751 40.168 108.367 39.624C107.999 39.08 107.471 38.808 106.783 38.808C106.111 38.808 105.575 39.08 105.175 39.624C104.775 40.168 104.575 40.92 104.575 41.88C104.575 42.84 104.775 43.592 105.175 44.136C105.575 44.664 106.111 44.928 106.783 44.928Z" fill="url(#paint0_linear)"/>
<path d="M38.1372 73.16C37.2945 73.16 36.5532 72.9947 35.9132 72.664C35.2839 72.3227 34.7932 71.8693 34.4412 71.304C34.0892 70.7387 33.8279 70.1307 33.6572 69.48C33.4972 68.8293 33.4172 68.136 33.4172 67.4C33.4172 66.728 33.5025 66.072 33.6732 65.432C33.8439 64.7813 34.1052 64.168 34.4572 63.592C34.8092 63.0053 35.2999 62.536 35.9292 62.184C36.5692 61.8213 37.3052 61.64 38.1372 61.64C39.1505 61.64 40.0145 61.9013 40.7292 62.424C41.4439 62.9467 41.9505 63.5813 42.2492 64.328L40.0732 65.304C39.7639 64.8453 39.4652 64.5093 39.1772 64.296C38.8999 64.0827 38.5532 63.976 38.1372 63.976C37.7425 63.976 37.3959 64.0827 37.0972 64.296C36.7985 64.4987 36.5692 64.776 36.4092 65.128C36.2492 65.4693 36.1319 65.832 36.0572 66.216C35.9825 66.5893 35.9452 66.984 35.9452 67.4C35.9452 67.9653 36.0145 68.4987 36.1532 69C36.3025 69.5013 36.5479 69.9333 36.8892 70.296C37.2412 70.648 37.6572 70.824 38.1372 70.824C38.8305 70.824 39.4652 70.344 40.0412 69.384L42.2652 70.216C41.3585 72.1787 39.9825 73.16 38.1372 73.16ZM44.0534 73V62.536L46.3734 61.448V73H44.0534ZM50.0324 64.04C49.6698 64.04 49.3551 63.912 49.0884 63.656C48.8218 63.3893 48.6884 63.0747 48.6884 62.712C48.6884 62.3493 48.8164 62.04 49.0724 61.784C49.3391 61.528 49.6591 61.4 50.0324 61.4C50.4058 61.4 50.7204 61.528 50.9764 61.784C51.2324 62.0293 51.3604 62.3387 51.3604 62.712C51.3604 63.0747 51.2324 63.3893 50.9764 63.656C50.7204 63.912 50.4058 64.04 50.0324 64.04ZM48.8644 73V64.824H51.1844V73H48.8644ZM57.0224 73.192C55.8598 73.192 54.9318 72.8133 54.2384 72.056C53.5451 71.2987 53.1984 70.2533 53.1984 68.92C53.1984 67.608 53.5451 66.568 54.2384 65.8C54.9424 65.0213 55.8704 64.632 57.0224 64.632C58.8784 64.632 60.0731 65.4853 60.6064 67.192L58.3984 67.912C58.1318 67.208 57.6838 66.856 57.0544 66.856C56.6171 66.856 56.2544 67.048 55.9664 67.432C55.6891 67.816 55.5504 68.312 55.5504 68.92C55.5504 69.528 55.6891 70.024 55.9664 70.408C56.2438 70.7813 56.5958 70.968 57.0224 70.968C57.6944 70.968 58.1531 70.5733 58.3984 69.784L60.6224 70.424C60.0784 72.2693 58.8784 73.192 57.0224 73.192ZM65.9287 73.192C64.766 73.192 63.838 72.8133 63.1447 72.056C62.4514 71.2987 62.1047 70.2533 62.1047 68.92C62.1047 67.608 62.4514 66.568 63.1447 65.8C63.8487 65.0213 64.7767 64.632 65.9287 64.632C67.7847 64.632 68.9794 65.4853 69.5127 67.192L67.3047 67.912C67.038 67.208 66.59 66.856 65.9607 66.856C65.5234 66.856 65.1607 67.048 64.8727 67.432C64.5954 67.816 64.4567 68.312 64.4567 68.92C64.4567 69.528 64.5954 70.024 64.8727 70.408C65.15 70.7813 65.502 70.968 65.9287 70.968C66.6007 70.968 67.0594 70.5733 67.3047 69.784L69.5287 70.424C68.9847 72.2693 67.7847 73.192 65.9287 73.192ZM76.1131 73V72.392C75.6224 72.9253 74.9451 73.192 74.0811 73.192C73.1744 73.192 72.4331 72.9627 71.8571 72.504C71.2917 72.0347 71.0091 71.368 71.0091 70.504C71.0091 69.6613 71.3397 69.016 72.0011 68.568C72.6624 68.1093 73.4357 67.88 74.3211 67.88C75.0891 67.88 75.6864 67.976 76.1131 68.168V67.72C76.1131 67.3467 75.9957 67.064 75.7611 66.872C75.5264 66.6693 75.2011 66.568 74.7851 66.568C73.8997 66.568 73.0251 66.856 72.1611 67.432L71.4411 65.656C72.4437 64.9733 73.6117 64.632 74.9451 64.632C77.2597 64.632 78.4171 65.6987 78.4171 67.832V73H76.1131ZM74.5291 71.24C75.1051 71.24 75.6331 71.048 76.1131 70.664V69.928C75.6864 69.8 75.2224 69.736 74.7211 69.736C73.7611 69.736 73.2811 69.9973 73.2811 70.52C73.2811 71 73.6971 71.24 74.5291 71.24ZM87.7779 73.192C86.7966 73.192 85.9859 72.808 85.3459 72.04C84.7059 71.272 84.3859 70.232 84.3859 68.92C84.3859 67.5547 84.7059 66.4987 85.3459 65.752C85.9966 65.0053 86.8499 64.632 87.9059 64.632C88.6099 64.632 89.1113 64.8827 89.4099 65.384V64.824H91.7299V75.144L89.4099 76.2V72.472C89.0366 72.952 88.4926 73.192 87.7779 73.192ZM88.1619 70.952C88.8233 70.952 89.2393 70.776 89.4099 70.424V67.368C89.1006 67.0373 88.6846 66.872 88.1619 66.872C87.6819 66.872 87.3193 67.0533 87.0739 67.416C86.8286 67.768 86.7059 68.2693 86.7059 68.92C86.7059 69.56 86.8339 70.0613 87.0899 70.424C87.3459 70.776 87.7033 70.952 88.1619 70.952ZM99.1057 73V72.248C98.5937 72.8773 97.847 73.192 96.8657 73.192C96.535 73.192 96.215 73.1387 95.9057 73.032C95.5964 72.936 95.2977 72.776 95.0097 72.552C94.7217 72.328 94.487 72.008 94.3057 71.592C94.135 71.176 94.0497 70.6907 94.0497 70.136V64.824H96.3697V69.08C96.3697 69.7307 96.4657 70.2053 96.6577 70.504C96.8497 70.8027 97.191 70.952 97.6817 70.952C98.1724 70.952 98.5297 70.8027 98.7537 70.504C98.9884 70.2053 99.1057 69.7413 99.1057 69.112V64.824H101.426V73H99.1057ZM105.017 64.04C104.654 64.04 104.339 63.912 104.073 63.656C103.806 63.3893 103.673 63.0747 103.673 62.712C103.673 62.3493 103.801 62.04 104.057 61.784C104.323 61.528 104.643 61.4 105.017 61.4C105.39 61.4 105.705 61.528 105.961 61.784C106.217 62.0293 106.345 62.3387 106.345 62.712C106.345 63.0747 106.217 63.3893 105.961 63.656C105.705 63.912 105.39 64.04 105.017 64.04ZM103.849 73V64.824H106.169V73H103.849Z" fill="url(#paint1_linear)"/>
<defs>
<linearGradient id="paint0_linear" x1="26" y1="21" x2="26" y2="80" gradientUnits="userSpaceOnUse">
<stop offset="1e-07" stop-color="#00F260"/>
<stop offset="1" stop-color="#0575E6"/>
</linearGradient>
<linearGradient id="paint1_linear" x1="70" y1="80" x2="70" y2="21" gradientUnits="userSpaceOnUse">
<stop stop-color="#037164"/>
<stop offset="1" stop-color="#00AC98"/>
</linearGradient>
</defs>
</svg>
