<svg width="140" height="100" viewBox="0 0 140 100" fill="none" xmlns="http://www.w3.org/2000/svg">
<path d="M20.7674 48H17.5754L11.2394 39.096C11.0794 38.888 10.8394 38.464 10.5194 37.824C10.5674 38.096 10.5914 38.52 10.5914 39.096V48H6.99141V31.2H10.3274L16.4954 40.008C16.7994 40.44 17.0314 40.856 17.1914 41.256C17.1434 40.92 17.1194 40.496 17.1194 39.984V31.2H20.7674V48ZM29.5672 48.288C27.7592 48.288 26.3352 47.72 25.2952 46.584C24.2552 45.448 23.7352 43.872 23.7352 41.856C23.7352 39.888 24.2552 38.328 25.2952 37.176C26.3512 36.024 27.7752 35.448 29.5672 35.448C31.1992 35.448 32.5272 35.944 33.5512 36.936C34.5752 37.928 35.0872 39.368 35.0872 41.256C35.0872 42.04 35.0552 42.64 34.9912 43.056H27.1432C27.1752 43.824 27.4152 44.4 27.8632 44.784C28.3112 45.152 28.8792 45.336 29.5672 45.336C30.6872 45.336 31.6072 44.904 32.3272 44.04L34.3432 46.056C33.1112 47.544 31.5192 48.288 29.5672 48.288ZM27.1672 40.44H31.7512C31.5752 39.08 30.7992 38.4 29.4232 38.4C28.7992 38.4 28.2872 38.584 27.8872 38.952C27.4872 39.304 27.2472 39.8 27.1672 40.44ZM42.4158 48.288C40.8638 48.288 39.6318 47.736 38.7198 46.632C37.8238 45.528 37.3758 43.936 37.3758 41.856C37.3758 39.92 37.8558 38.368 38.8158 37.2C39.7758 36.032 40.9918 35.448 42.4638 35.448C43.5198 35.448 44.3358 35.856 44.9118 36.672V32.232L48.3918 30.672V48H44.9118V46.992C44.4638 47.856 43.6318 48.288 42.4158 48.288ZM43.0158 44.928C43.9118 44.928 44.5438 44.672 44.9118 44.16V39.624C44.4798 39.08 43.8478 38.808 43.0158 38.808C42.3278 38.808 41.7918 39.072 41.4078 39.6C41.0398 40.128 40.8558 40.88 40.8558 41.856C40.8558 43.904 41.5758 44.928 43.0158 44.928ZM57.2234 48.288C55.4154 48.288 53.9914 47.72 52.9514 46.584C51.9114 45.448 51.3914 43.872 51.3914 41.856C51.3914 39.888 51.9114 38.328 52.9514 37.176C54.0074 36.024 55.4314 35.448 57.2234 35.448C58.8554 35.448 60.1834 35.944 61.2074 36.936C62.2314 37.928 62.7434 39.368 62.7434 41.256C62.7434 42.04 62.7114 42.64 62.6474 43.056H54.7994C54.8314 43.824 55.0714 44.4 55.5194 44.784C55.9674 45.152 56.5354 45.336 57.2234 45.336C58.3434 45.336 59.2634 44.904 59.9834 44.04L61.9994 46.056C60.7674 47.544 59.1754 48.288 57.2234 48.288ZM54.8234 40.44H59.4074C59.2314 39.08 58.4554 38.4 57.0794 38.4C56.4554 38.4 55.9434 38.584 55.5434 38.952C55.1434 39.304 54.9034 39.8 54.8234 40.44ZM65.632 48V35.736H69.112V36.84C69.272 36.52 69.56 36.208 69.976 35.904C70.392 35.6 70.88 35.448 71.44 35.448C72.4 35.448 73.208 35.792 73.864 36.48L73.408 39.648C72.736 39.088 72.008 38.808 71.224 38.808C69.816 38.808 69.112 39.656 69.112 41.352V48H65.632ZM75.9708 48V32.304L79.4508 30.672V48H75.9708ZM90.0993 48V47.088C89.3633 47.888 88.3473 48.288 87.0513 48.288C85.6913 48.288 84.5793 47.944 83.7153 47.256C82.8673 46.552 82.4433 45.552 82.4433 44.256C82.4433 42.992 82.9393 42.024 83.9313 41.352C84.9233 40.664 86.0833 40.32 87.4113 40.32C88.5633 40.32 89.4593 40.464 90.0993 40.752V40.08C90.0993 39.52 89.9233 39.096 89.5713 38.808C89.2193 38.504 88.7313 38.352 88.1073 38.352C86.7793 38.352 85.4673 38.784 84.1713 39.648L83.0913 36.984C84.5953 35.96 86.3473 35.448 88.3473 35.448C91.8193 35.448 93.5553 37.048 93.5553 40.248V48H90.0993ZM87.7233 45.36C88.5873 45.36 89.3793 45.072 90.0993 44.496V43.392C89.4593 43.2 88.7633 43.104 88.0113 43.104C86.5713 43.104 85.8513 43.496 85.8513 44.28C85.8513 45 86.4753 45.36 87.7233 45.36ZM104.505 48V41.616C104.505 40.624 104.353 39.912 104.049 39.48C103.761 39.032 103.265 38.808 102.561 38.808C101.809 38.808 101.257 39.032 100.905 39.48C100.569 39.928 100.401 40.624 100.401 41.568V48H96.9211V35.736H100.401V36.864C101.185 35.92 102.297 35.448 103.737 35.448C104.873 35.448 105.865 35.808 106.713 36.528C107.561 37.248 107.985 38.416 107.985 40.032V48H104.505ZM115.916 48.288C114.364 48.288 113.132 47.736 112.22 46.632C111.324 45.528 110.876 43.936 110.876 41.856C110.876 39.92 111.356 38.368 112.316 37.2C113.276 36.032 114.492 35.448 115.964 35.448C117.02 35.448 117.836 35.856 118.412 36.672V32.232L121.892 30.672V48H118.412V46.992C117.964 47.856 117.132 48.288 115.916 48.288ZM116.516 44.928C117.412 44.928 118.044 44.672 118.412 44.16V39.624C117.98 39.08 117.348 38.808 116.516 38.808C115.828 38.808 115.292 39.072 114.908 39.6C114.54 40.128 114.356 40.88 114.356 41.856C114.356 43.904 115.076 44.928 116.516 44.928ZM129.691 48.288C128.683 48.288 127.715 48.08 126.787 47.664C125.859 47.232 125.147 46.664 124.651 45.96L126.883 44.064C127.219 44.4 127.651 44.712 128.179 45C128.707 45.288 129.243 45.432 129.787 45.432C130.923 45.432 131.491 45.112 131.491 44.472C131.491 44.184 131.339 43.952 131.035 43.776C130.747 43.584 130.203 43.336 129.403 43.032C127.883 42.52 126.779 41.976 126.091 41.4C125.403 40.808 125.059 39.984 125.059 38.928C125.059 37.856 125.491 37.008 126.355 36.384C127.235 35.76 128.323 35.448 129.619 35.448C131.475 35.448 133.011 36.128 134.227 37.488L131.971 39.336C131.219 38.648 130.435 38.304 129.619 38.304C128.659 38.304 128.179 38.568 128.179 39.096C128.179 39.592 128.979 40.04 130.579 40.44C131.155 40.632 131.627 40.816 131.995 40.992C132.379 41.152 132.795 41.392 133.243 41.712C133.691 42.016 134.027 42.4 134.251 42.864C134.491 43.328 134.611 43.864 134.611 44.472C134.611 45.672 134.163 46.608 133.267 47.28C132.387 47.952 131.195 48.288 129.691 48.288Z" fill="url(#paint0_linear)"/>
<path d="M46.4335 73L43.6975 67.912L41.5695 70.568V73H39.1375V61.8H41.5695V67.096L45.7615 61.8H48.6895L45.3455 65.864L49.2815 73H46.4335ZM50.9519 73V62.536L53.2719 61.448V73H50.9519ZM56.9309 64.04C56.5682 64.04 56.2535 63.912 55.9869 63.656C55.7202 63.3893 55.5869 63.0747 55.5869 62.712C55.5869 62.3493 55.7149 62.04 55.9709 61.784C56.2375 61.528 56.5575 61.4 56.9309 61.4C57.3042 61.4 57.6189 61.528 57.8749 61.784C58.1309 62.0293 58.2589 62.3387 58.2589 62.712C58.2589 63.0747 58.1309 63.3893 57.8749 63.656C57.6189 63.912 57.3042 64.04 56.9309 64.04ZM55.7629 73V64.824H58.0829V73H55.7629ZM68.1129 73H65.5849L63.4249 68.888L62.8169 69.448V73H60.4969V62.536L62.8169 61.448V66.872L64.8809 64.824H67.6329L65.1369 67.24L68.1129 73ZM73.825 73V62.52L76.145 61.448V65.576C76.6677 64.9467 77.409 64.632 78.369 64.632C79.1263 64.632 79.7877 64.872 80.353 65.352C80.9183 65.832 81.201 66.6107 81.201 67.688V73H78.881V68.616C78.881 68.008 78.7797 67.5653 78.577 67.288C78.385 67.0107 78.0543 66.872 77.585 66.872C76.625 66.872 76.145 67.4427 76.145 68.584V73H73.825ZM84.7121 64.04C84.3495 64.04 84.0348 63.912 83.7681 63.656C83.5015 63.3893 83.3681 63.0747 83.3681 62.712C83.3681 62.3493 83.4961 62.04 83.7521 61.784C84.0188 61.528 84.3388 61.4 84.7121 61.4C85.0855 61.4 85.4001 61.528 85.6561 61.784C85.9121 62.0293 86.0401 62.3387 86.0401 62.712C86.0401 63.0747 85.9121 63.3893 85.6561 63.656C85.4001 63.912 85.0855 64.04 84.7121 64.04ZM83.5441 73V64.824H85.8641V73H83.5441ZM91.7661 73.192C90.5608 73.192 89.6115 72.8133 88.9181 72.056C88.2248 71.2987 87.8781 70.248 87.8781 68.904C87.8781 67.592 88.2248 66.552 88.9181 65.784C89.6221 65.016 90.5715 64.632 91.7661 64.632C92.8541 64.632 93.7395 64.9627 94.4221 65.624C95.1048 66.2853 95.4461 67.2453 95.4461 68.504C95.4461 69.0267 95.4248 69.4267 95.3821 69.704H90.1501C90.1715 70.216 90.3315 70.6 90.6301 70.856C90.9288 71.1013 91.3075 71.224 91.7661 71.224C92.5128 71.224 93.1261 70.936 93.6061 70.36L94.9501 71.704C94.1288 72.696 93.0675 73.192 91.7661 73.192ZM90.1661 67.96H93.2221C93.1048 67.0533 92.5875 66.6 91.6701 66.6C91.2541 66.6 90.9128 66.7227 90.6461 66.968C90.3795 67.2027 90.2195 67.5333 90.1661 67.96ZM97.3719 73V64.824H99.6919V65.56C99.7985 65.3467 99.9905 65.1387 100.268 64.936C100.545 64.7333 100.871 64.632 101.244 64.632C101.884 64.632 102.423 64.8613 102.86 65.32L102.556 67.432C102.108 67.0587 101.623 66.872 101.1 66.872C100.161 66.872 99.6919 67.4373 99.6919 68.568V73H97.3719Z" fill="url(#paint1_linear)"/>
<defs>
<linearGradient id="paint0_linear" x1="5" y1="21" x2="5" y2="80" gradientUnits="userSpaceOnUse">
<stop offset="1e-07" stop-color="#FF6E00"/>
<stop offset="1" stop-color="#DC3514"/>
</linearGradient>
<linearGradient id="paint1_linear" x1="70.5" y1="80" x2="70.5" y2="21" gradientUnits="userSpaceOnUse">
<stop stop-color="#037164"/>
<stop offset="1" stop-color="#00AC98"/>
</linearGradient>
</defs>
</svg>
