<svg width="140" height="100" viewBox="0 0 140 100" fill="none" xmlns="http://www.w3.org/2000/svg">
<path d="M12.8195 33V16.2H20.2595C22.2595 16.2 23.7315 16.72 24.6755 17.76C25.6355 18.8 26.1155 20.08 26.1155 21.6C26.1155 22.256 26.0035 22.896 25.7795 23.52C25.5555 24.128 25.2195 24.696 24.7715 25.224C24.3235 25.752 23.7075 26.176 22.9235 26.496C22.1395 26.816 21.2515 26.976 20.2595 26.976H16.4675V33H12.8195ZM20.4035 23.544C21.0435 23.544 21.5235 23.352 21.8435 22.968C22.1635 22.584 22.3235 22.128 22.3235 21.6C22.3235 21.088 22.1715 20.64 21.8675 20.256C21.5635 19.856 21.0755 19.656 20.4035 19.656H16.4675V23.544H20.4035ZM32.7669 33.288C31.0069 33.288 29.6149 32.72 28.5909 31.584C27.5829 30.448 27.0789 28.88 27.0789 26.88C27.0789 24.896 27.5909 23.328 28.6149 22.176C29.6389 21.024 31.0229 20.448 32.7669 20.448C34.4949 20.448 35.8629 21.024 36.8709 22.176C37.8949 23.328 38.4069 24.896 38.4069 26.88C38.4069 28.88 37.9029 30.448 36.8949 31.584C35.8869 32.72 34.5109 33.288 32.7669 33.288ZM32.7669 29.928C33.4549 29.928 33.9829 29.664 34.3509 29.136C34.7349 28.592 34.9269 27.84 34.9269 26.88C34.9269 25.92 34.7349 25.168 34.3509 24.624C33.9829 24.08 33.4549 23.808 32.7669 23.808C32.0949 23.808 31.5589 24.08 31.1589 24.624C30.7589 25.168 30.5589 25.92 30.5589 26.88C30.5589 27.84 30.7589 28.592 31.1589 29.136C31.5589 29.664 32.0949 29.928 32.7669 29.928ZM41.4133 33V20.736H44.8933V21.84C45.0533 21.52 45.3413 21.208 45.7573 20.904C46.1733 20.6 46.6613 20.448 47.2213 20.448C48.1813 20.448 48.9893 20.792 49.6453 21.48L49.1893 24.648C48.5173 24.088 47.7893 23.808 47.0053 23.808C45.5973 23.808 44.8933 24.656 44.8933 26.352V33H41.4133ZM55.4452 33.288C53.3812 33.288 52.3492 32.168 52.3492 29.928V23.784H50.6692V20.736H52.3492V17.328L55.8052 15.672V20.736H58.4692V23.784H55.8052V29.592C55.8052 29.816 55.8692 29.992 55.9972 30.12C56.1412 30.232 56.3092 30.288 56.5012 30.288C57.2052 30.288 57.9092 30.128 58.6132 29.808L58.2292 32.736C57.4772 33.104 56.5492 33.288 55.4452 33.288ZM69.5492 33V31.872C68.7812 32.816 67.6612 33.288 66.1892 33.288C65.6932 33.288 65.2132 33.208 64.7492 33.048C64.2852 32.904 63.8372 32.664 63.4052 32.328C62.9732 31.992 62.6212 31.512 62.3492 30.888C62.0932 30.264 61.9652 29.536 61.9652 28.704V20.736H65.4452V27.12C65.4452 28.096 65.5892 28.808 65.8772 29.256C66.1652 29.704 66.6772 29.928 67.4132 29.928C68.1492 29.928 68.6852 29.704 69.0212 29.256C69.3732 28.808 69.5492 28.112 69.5492 27.168V20.736H73.0292V33H69.5492ZM83.5758 20.736H87.0558V30.864C87.0558 31.824 87.0158 32.616 86.9358 33.24C86.8718 33.88 86.7198 34.488 86.4798 35.064C86.2558 35.656 85.9278 36.12 85.4958 36.456C85.0798 36.808 84.5198 37.096 83.8158 37.32C83.1278 37.56 82.2798 37.72 81.2718 37.8L79.2798 34.824C80.9918 34.68 82.1278 34.48 82.6878 34.224C83.2638 33.968 83.5598 33.4 83.5758 32.52C83.0318 33.032 82.2158 33.288 81.1278 33.288C79.5758 33.288 78.3358 32.736 77.4078 31.632C76.4958 30.528 76.0398 28.936 76.0398 26.856C76.0398 24.904 76.5038 23.352 77.4318 22.2C78.3758 21.032 79.6078 20.448 81.1278 20.448C82.1838 20.448 82.9998 20.72 83.5758 21.264V20.736ZM83.5758 29.184V24.6C83.5598 24.584 83.4958 24.528 83.3838 24.432C83.2878 24.32 83.1998 24.24 83.1198 24.192C83.0558 24.144 82.9518 24.088 82.8078 24.024C82.6638 23.944 82.4958 23.888 82.3038 23.856C82.1118 23.824 81.8958 23.808 81.6558 23.808C80.9838 23.808 80.4558 24.072 80.0718 24.6C79.7038 25.128 79.5198 25.88 79.5198 26.856C79.5198 28.904 80.2318 29.928 81.6558 29.928C82.5038 29.928 83.1438 29.68 83.5758 29.184ZM98.1195 33V31.872C97.3515 32.816 96.2315 33.288 94.7595 33.288C94.2635 33.288 93.7835 33.208 93.3195 33.048C92.8555 32.904 92.4075 32.664 91.9755 32.328C91.5435 31.992 91.1915 31.512 90.9195 30.888C90.6635 30.264 90.5355 29.536 90.5355 28.704V20.736H94.0155V27.12C94.0155 28.096 94.1595 28.808 94.4475 29.256C94.7355 29.704 95.2475 29.928 95.9835 29.928C96.7195 29.928 97.2555 29.704 97.5915 29.256C97.9435 28.808 98.1195 28.112 98.1195 27.168V20.736H101.599V33H98.1195ZM112.314 19.176L110.442 17.64L108.546 19.176H105.402L108.81 15.432H112.074L115.458 19.176H112.314ZM110.442 33.288C108.634 33.288 107.21 32.72 106.17 31.584C105.13 30.448 104.61 28.872 104.61 26.856C104.61 24.888 105.13 23.328 106.17 22.176C107.226 21.024 108.65 20.448 110.442 20.448C112.074 20.448 113.402 20.944 114.426 21.936C115.45 22.928 115.962 24.368 115.962 26.256C115.962 27.04 115.93 27.64 115.866 28.056H108.018C108.05 28.824 108.29 29.4 108.738 29.784C109.186 30.152 109.754 30.336 110.442 30.336C111.562 30.336 112.482 29.904 113.202 29.04L115.218 31.056C113.986 32.544 112.394 33.288 110.442 33.288ZM108.042 25.44H112.626C112.45 24.08 111.674 23.4 110.298 23.4C109.674 23.4 109.162 23.584 108.762 23.952C108.362 24.304 108.122 24.8 108.042 25.44ZM122.863 33.288C121.855 33.288 120.887 33.08 119.959 32.664C119.031 32.232 118.319 31.664 117.823 30.96L120.055 29.064C120.391 29.4 120.823 29.712 121.351 30C121.879 30.288 122.415 30.432 122.959 30.432C124.095 30.432 124.663 30.112 124.663 29.472C124.663 29.184 124.511 28.952 124.207 28.776C123.919 28.584 123.375 28.336 122.575 28.032C121.055 27.52 119.951 26.976 119.263 26.4C118.575 25.808 118.231 24.984 118.231 23.928C118.231 22.856 118.663 22.008 119.527 21.384C120.407 20.76 121.495 20.448 122.791 20.448C124.647 20.448 126.183 21.128 127.399 22.488L125.143 24.336C124.391 23.648 123.607 23.304 122.791 23.304C121.831 23.304 121.351 23.568 121.351 24.096C121.351 24.592 122.151 25.04 123.751 25.44C124.327 25.632 124.799 25.816 125.167 25.992C125.551 26.152 125.967 26.392 126.415 26.712C126.863 27.016 127.199 27.4 127.423 27.864C127.663 28.328 127.783 28.864 127.783 29.472C127.783 30.672 127.335 31.608 126.439 32.28C125.559 32.952 124.367 33.288 122.863 33.288ZM38.7584 58.192C38.0757 58.192 37.5744 57.92 37.2544 57.376V58H34.9344V47.488L37.2544 46.448V50.416C37.6277 49.8933 38.1717 49.632 38.8864 49.632C39.8677 49.632 40.6784 50.0213 41.3184 50.8C41.9584 51.5787 42.2784 52.6133 42.2784 53.904C42.2784 55.2693 41.9637 56.3253 41.3344 57.072C40.705 57.8187 39.8464 58.192 38.7584 58.192ZM38.5024 55.952C38.9717 55.952 39.329 55.7707 39.5744 55.408C39.8304 55.0453 39.9584 54.544 39.9584 53.904C39.9584 53.2533 39.8304 52.752 39.5744 52.4C39.329 52.048 38.9717 51.872 38.5024 51.872C37.9584 51.872 37.5424 52.048 37.2544 52.4V55.44C37.521 55.7813 37.937 55.952 38.5024 55.952ZM44.2781 58V49.824H46.5981V50.56C46.7048 50.3467 46.8968 50.1387 47.1741 49.936C47.4515 49.7333 47.7768 49.632 48.1501 49.632C48.7901 49.632 49.3288 49.8613 49.7661 50.32L49.4621 52.432C49.0141 52.0587 48.5288 51.872 48.0061 51.872C47.0675 51.872 46.5981 52.4373 46.5981 53.568V58H44.2781ZM55.699 58V57.392C55.2083 57.9253 54.531 58.192 53.667 58.192C52.7603 58.192 52.019 57.9627 51.443 57.504C50.8777 57.0347 50.595 56.368 50.595 55.504C50.595 54.6613 50.9257 54.016 51.587 53.568C52.2483 53.1093 53.0217 52.88 53.907 52.88C54.675 52.88 55.2723 52.976 55.699 53.168V52.72C55.699 52.3467 55.5817 52.064 55.347 51.872C55.1123 51.6693 54.787 51.568 54.371 51.568C53.4857 51.568 52.611 51.856 51.747 52.432L51.027 50.656C52.0297 49.9733 53.1977 49.632 54.531 49.632C56.8457 49.632 58.003 50.6987 58.003 52.832V58H55.699ZM54.115 56.24C54.691 56.24 55.219 56.048 55.699 55.664V54.928C55.2723 54.8 54.8083 54.736 54.307 54.736C53.347 54.736 52.867 54.9973 52.867 55.52C52.867 56 53.283 56.24 54.115 56.24ZM63.0469 58.192C62.3749 58.192 61.7295 58.0533 61.1109 57.776C60.4922 57.488 60.0175 57.1093 59.6869 56.64L61.1749 55.376C61.3989 55.6 61.6869 55.808 62.0389 56C62.3909 56.192 62.7482 56.288 63.1109 56.288C63.8682 56.288 64.2469 56.0747 64.2469 55.648C64.2469 55.456 64.1455 55.3013 63.9429 55.184C63.7509 55.056 63.3882 54.8907 62.8549 54.688C61.8415 54.3467 61.1055 53.984 60.6469 53.6C60.1882 53.2053 59.9589 52.656 59.9589 51.952C59.9589 51.2373 60.2469 50.672 60.8229 50.256C61.4095 49.84 62.1349 49.632 62.9989 49.632C64.2362 49.632 65.2602 50.0853 66.0709 50.992L64.5669 52.224C64.0655 51.7653 63.5429 51.536 62.9989 51.536C62.3589 51.536 62.0389 51.712 62.0389 52.064C62.0389 52.3947 62.5722 52.6933 63.6389 52.96C64.0229 53.088 64.3375 53.2107 64.5829 53.328C64.8389 53.4347 65.1162 53.5947 65.4149 53.808C65.7135 54.0107 65.9375 54.2667 66.0869 54.576C66.2469 54.8853 66.3269 55.2427 66.3269 55.648C66.3269 56.448 66.0282 57.072 65.4309 57.52C64.8442 57.968 64.0495 58.192 63.0469 58.192ZM69.509 49.04C69.1463 49.04 68.8317 48.912 68.565 48.656C68.2983 48.3893 68.165 48.0747 68.165 47.712C68.165 47.3493 68.293 47.04 68.549 46.784C68.8157 46.528 69.1357 46.4 69.509 46.4C69.8823 46.4 70.197 46.528 70.453 46.784C70.709 47.0293 70.837 47.3387 70.837 47.712C70.837 48.0747 70.709 48.3893 70.453 48.656C70.197 48.912 69.8823 49.04 69.509 49.04ZM68.341 58V49.824H70.661V58H68.341ZM73.155 58V47.536L75.475 46.448V58H73.155ZM81.438 58.192C80.2327 58.192 79.2833 57.8133 78.59 57.056C77.8967 56.2987 77.55 55.248 77.55 53.904C77.55 52.592 77.8967 51.552 78.59 50.784C79.294 50.016 80.2433 49.632 81.438 49.632C82.526 49.632 83.4113 49.9627 84.094 50.624C84.7767 51.2853 85.118 52.2453 85.118 53.504C85.118 54.0267 85.0967 54.4267 85.054 54.704H79.822C79.8433 55.216 80.0033 55.6 80.302 55.856C80.6007 56.1013 80.9793 56.224 81.438 56.224C82.1847 56.224 82.798 55.936 83.278 55.36L84.622 56.704C83.8007 57.696 82.7393 58.192 81.438 58.192ZM79.838 52.96H82.894C82.7767 52.0533 82.2593 51.6 81.342 51.6C80.926 51.6 80.5847 51.7227 80.318 51.968C80.0513 52.2027 79.8913 52.5333 79.838 52.96ZM88.2278 49.04C87.8651 49.04 87.5504 48.912 87.2838 48.656C87.0171 48.3893 86.8838 48.0747 86.8838 47.712C86.8838 47.3493 87.0118 47.04 87.2678 46.784C87.5344 46.528 87.8544 46.4 88.2278 46.4C88.6011 46.4 88.9158 46.528 89.1718 46.784C89.4278 47.0293 89.5558 47.3387 89.5558 47.712C89.5558 48.0747 89.4278 48.3893 89.1718 48.656C88.9158 48.912 88.6011 49.04 88.2278 49.04ZM87.0598 58V49.824H89.3798V58H87.0598ZM91.7938 58V49.824H94.1138V50.56C94.2204 50.3467 94.4124 50.1387 94.6898 49.936C94.9671 49.7333 95.2924 49.632 95.6658 49.632C96.3058 49.632 96.8444 49.8613 97.2818 50.32L96.9778 52.432C96.5298 52.0587 96.0444 51.872 95.5218 51.872C94.5831 51.872 94.1138 52.4373 94.1138 53.568V58H91.7938ZM101.701 58.192C100.528 58.192 99.6 57.8133 98.9174 57.056C98.2454 56.2987 97.9094 55.2533 97.9094 53.92C97.9094 52.5973 98.2507 51.552 98.9334 50.784C99.616 50.016 100.539 49.632 101.701 49.632C102.853 49.632 103.765 50.016 104.437 50.784C105.12 51.552 105.461 52.5973 105.461 53.92C105.461 55.2533 105.125 56.2987 104.453 57.056C103.781 57.8133 102.864 58.192 101.701 58.192ZM101.701 55.952C102.16 55.952 102.512 55.776 102.757 55.424C103.013 55.0613 103.141 54.56 103.141 53.92C103.141 53.28 103.013 52.7787 102.757 52.416C102.512 52.0533 102.16 51.872 101.701 51.872C101.253 51.872 100.896 52.0533 100.629 52.416C100.363 52.7787 100.229 53.28 100.229 53.92C100.229 54.56 100.363 55.0613 100.629 55.424C100.896 55.776 101.253 55.952 101.701 55.952Z" fill="url(#paint0_linear)"/>
<path d="M33.0122 83.16C32.1695 83.16 31.4282 82.9947 30.7882 82.664C30.1589 82.3227 29.6682 81.8693 29.3162 81.304C28.9642 80.7387 28.7029 80.1307 28.5322 79.48C28.3722 78.8293 28.2922 78.136 28.2922 77.4C28.2922 76.728 28.3775 76.072 28.5482 75.432C28.7189 74.7813 28.9802 74.168 29.3322 73.592C29.6842 73.0053 30.1749 72.536 30.8042 72.184C31.4442 71.8213 32.1802 71.64 33.0122 71.64C34.0255 71.64 34.8895 71.9013 35.6042 72.424C36.3189 72.9467 36.8255 73.5813 37.1242 74.328L34.9482 75.304C34.6389 74.8453 34.3402 74.5093 34.0522 74.296C33.7749 74.0827 33.4282 73.976 33.0122 73.976C32.6175 73.976 32.2709 74.0827 31.9722 74.296C31.6735 74.4987 31.4442 74.776 31.2842 75.128C31.1242 75.4693 31.0069 75.832 30.9322 76.216C30.8575 76.5893 30.8202 76.984 30.8202 77.4C30.8202 77.9653 30.8895 78.4987 31.0282 79C31.1775 79.5013 31.4229 79.9333 31.7642 80.296C32.1162 80.648 32.5322 80.824 33.0122 80.824C33.7055 80.824 34.3402 80.344 34.9162 79.384L37.1402 80.216C36.2335 82.1787 34.8575 83.16 33.0122 83.16ZM38.9284 83V72.536L41.2484 71.448V83H38.9284ZM44.9074 74.04C44.5448 74.04 44.2301 73.912 43.9634 73.656C43.6968 73.3893 43.5634 73.0747 43.5634 72.712C43.5634 72.3493 43.6914 72.04 43.9474 71.784C44.2141 71.528 44.5341 71.4 44.9074 71.4C45.2808 71.4 45.5954 71.528 45.8514 71.784C46.1074 72.0293 46.2354 72.3387 46.2354 72.712C46.2354 73.0747 46.1074 73.3893 45.8514 73.656C45.5954 73.912 45.2808 74.04 44.9074 74.04ZM43.7394 83V74.824H46.0594V83H43.7394ZM51.4654 83.192C50.4841 83.192 49.6734 82.808 49.0334 82.04C48.3934 81.272 48.0734 80.232 48.0734 78.92C48.0734 77.5547 48.3934 76.4987 49.0334 75.752C49.6841 75.0053 50.5374 74.632 51.5934 74.632C52.2974 74.632 52.7988 74.8827 53.0974 75.384V74.824H55.4174V85.144L53.0974 86.2V82.472C52.7241 82.952 52.1801 83.192 51.4654 83.192ZM51.8494 80.952C52.5108 80.952 52.9268 80.776 53.0974 80.424V77.368C52.7881 77.0373 52.3721 76.872 51.8494 76.872C51.3694 76.872 51.0068 77.0533 50.7614 77.416C50.5161 77.768 50.3934 78.2693 50.3934 78.92C50.3934 79.56 50.5214 80.0613 50.7774 80.424C51.0334 80.776 51.3908 80.952 51.8494 80.952ZM62.7932 83V82.248C62.2812 82.8773 61.5345 83.192 60.5532 83.192C60.2225 83.192 59.9025 83.1387 59.5932 83.032C59.2839 82.936 58.9852 82.776 58.6972 82.552C58.4092 82.328 58.1745 82.008 57.9932 81.592C57.8225 81.176 57.7372 80.6907 57.7372 80.136V74.824H60.0572V79.08C60.0572 79.7307 60.1532 80.2053 60.3452 80.504C60.5372 80.8027 60.8785 80.952 61.3692 80.952C61.8599 80.952 62.2172 80.8027 62.4412 80.504C62.6759 80.2053 62.7932 79.7413 62.7932 79.112V74.824H65.1132V83H62.7932ZM71.0083 83.192C69.803 83.192 68.8536 82.8133 68.1603 82.056C67.467 81.2987 67.1203 80.248 67.1203 78.904C67.1203 77.592 67.467 76.552 68.1603 75.784C68.8643 75.016 69.8136 74.632 71.0083 74.632C72.0963 74.632 72.9816 74.9627 73.6643 75.624C74.347 76.2853 74.6883 77.2453 74.6883 78.504C74.6883 79.0267 74.667 79.4267 74.6243 79.704H69.3923C69.4136 80.216 69.5736 80.6 69.8723 80.856C70.171 81.1013 70.5496 81.224 71.0083 81.224C71.755 81.224 72.3683 80.936 72.8483 80.36L74.1923 81.704C73.371 82.696 72.3096 83.192 71.0083 83.192ZM69.4083 77.96H72.4643C72.347 77.0533 71.8296 76.6 70.9123 76.6C70.4963 76.6 70.155 76.7227 69.8883 76.968C69.6216 77.2027 69.4616 77.5333 69.4083 77.96ZM85.3631 83V82.392C84.8724 82.9253 84.1951 83.192 83.3311 83.192C82.4244 83.192 81.6831 82.9627 81.1071 82.504C80.5417 82.0347 80.2591 81.368 80.2591 80.504C80.2591 79.6613 80.5897 79.016 81.2511 78.568C81.9124 78.1093 82.6857 77.88 83.5711 77.88C84.3391 77.88 84.9364 77.976 85.3631 78.168V77.72C85.3631 77.3467 85.2457 77.064 85.0111 76.872C84.7764 76.6693 84.4511 76.568 84.0351 76.568C83.1497 76.568 82.2751 76.856 81.4111 77.432L80.6911 75.656C81.6937 74.9733 82.8617 74.632 84.1951 74.632C86.5097 74.632 87.6671 75.6987 87.6671 77.832V83H85.3631ZM83.7791 81.24C84.3551 81.24 84.8831 81.048 85.3631 80.664V79.928C84.9364 79.8 84.4724 79.736 83.9711 79.736C83.0111 79.736 82.5311 79.9973 82.5311 80.52C82.5311 81 82.9471 81.24 83.7791 81.24ZM92.9029 83.192C91.9216 83.192 91.1109 82.808 90.4709 82.04C89.8309 81.272 89.5109 80.232 89.5109 78.92C89.5109 77.5547 89.8309 76.4987 90.4709 75.752C91.1216 75.0053 91.9749 74.632 93.0309 74.632C93.7349 74.632 94.2363 74.8827 94.5349 75.384V74.824H96.8549V85.144L94.5349 86.2V82.472C94.1616 82.952 93.6176 83.192 92.9029 83.192ZM93.2869 80.952C93.9483 80.952 94.3643 80.776 94.5349 80.424V77.368C94.2256 77.0373 93.8096 76.872 93.2869 76.872C92.8069 76.872 92.4443 77.0533 92.1989 77.416C91.9536 77.768 91.8309 78.2693 91.8309 78.92C91.8309 79.56 91.9589 80.0613 92.2149 80.424C92.4709 80.776 92.8283 80.952 93.2869 80.952ZM104.231 83V82.248C103.719 82.8773 102.972 83.192 101.991 83.192C101.66 83.192 101.34 83.1387 101.031 83.032C100.721 82.936 100.423 82.776 100.135 82.552C99.8467 82.328 99.612 82.008 99.4307 81.592C99.26 81.176 99.1747 80.6907 99.1747 80.136V74.824H101.495V79.08C101.495 79.7307 101.591 80.2053 101.783 80.504C101.975 80.8027 102.316 80.952 102.807 80.952C103.297 80.952 103.655 80.8027 103.879 80.504C104.113 80.2053 104.231 79.7413 104.231 79.112V74.824H106.551V83H104.231ZM110.142 74.04C109.779 74.04 109.464 73.912 109.198 73.656C108.931 73.3893 108.798 73.0747 108.798 72.712C108.798 72.3493 108.926 72.04 109.182 71.784C109.448 71.528 109.768 71.4 110.142 71.4C110.515 71.4 110.83 71.528 111.086 71.784C111.342 72.0293 111.47 72.3387 111.47 72.712C111.47 73.0747 111.342 73.3893 111.086 73.656C110.83 73.912 110.515 74.04 110.142 74.04ZM108.974 83V74.824H111.294V83H108.974Z" fill="url(#paint1_linear)"/>
<defs>
<linearGradient id="paint0_linear" x1="70.0011" y1="6" x2="70.0011" y2="90.0015" gradientUnits="userSpaceOnUse">
<stop stop-color="#79DD00"/>
<stop offset="0.1" stop-color="#6DDB0A"/>
<stop offset="0.2" stop-color="#61D915"/>
<stop offset="0.3" stop-color="#55D620"/>
<stop offset="0.4" stop-color="#49D42B"/>
<stop offset="0.5" stop-color="#3CD235"/>
<stop offset="0.6" stop-color="#30CF40"/>
<stop offset="0.7" stop-color="#24CD4B"/>
<stop offset="0.8" stop-color="#18CA56"/>
<stop offset="0.9" stop-color="#0CC861"/>
<stop offset="1" stop-color="#00C66B"/>
</linearGradient>
<linearGradient id="paint1_linear" x1="70" y1="90" x2="70" y2="6" gradientUnits="userSpaceOnUse">
<stop stop-color="#037164"/>
<stop offset="1" stop-color="#00AC98"/>
</linearGradient>
</defs>
</svg>
