<svg width="140" height="100" viewBox="0 0 140 100" fill="none" xmlns="http://www.w3.org/2000/svg">
<path d="M12.8195 33V16.2H20.2595C22.2595 16.2 23.7315 16.72 24.6755 17.76C25.6355 18.8 26.1155 20.08 26.1155 21.6C26.1155 22.256 26.0035 22.896 25.7795 23.52C25.5555 24.128 25.2195 24.696 24.7715 25.224C24.3235 25.752 23.7075 26.176 22.9235 26.496C22.1395 26.816 21.2515 26.976 20.2595 26.976H16.4675V33H12.8195ZM20.4035 23.544C21.0435 23.544 21.5235 23.352 21.8435 22.968C22.1635 22.584 22.3235 22.128 22.3235 21.6C22.3235 21.088 22.1715 20.64 21.8675 20.256C21.5635 19.856 21.0755 19.656 20.4035 19.656H16.4675V23.544H20.4035ZM32.7669 33.288C31.0069 33.288 29.6149 32.72 28.5909 31.584C27.5829 30.448 27.0789 28.88 27.0789 26.88C27.0789 24.896 27.5909 23.328 28.6149 22.176C29.6389 21.024 31.0229 20.448 32.7669 20.448C34.4949 20.448 35.8629 21.024 36.8709 22.176C37.8949 23.328 38.4069 24.896 38.4069 26.88C38.4069 28.88 37.9029 30.448 36.8949 31.584C35.8869 32.72 34.5109 33.288 32.7669 33.288ZM32.7669 29.928C33.4549 29.928 33.9829 29.664 34.3509 29.136C34.7349 28.592 34.9269 27.84 34.9269 26.88C34.9269 25.92 34.7349 25.168 34.3509 24.624C33.9829 24.08 33.4549 23.808 32.7669 23.808C32.0949 23.808 31.5589 24.08 31.1589 24.624C30.7589 25.168 30.5589 25.92 30.5589 26.88C30.5589 27.84 30.7589 28.592 31.1589 29.136C31.5589 29.664 32.0949 29.928 32.7669 29.928ZM41.4133 33V20.736H44.8933V21.84C45.0533 21.52 45.3413 21.208 45.7573 20.904C46.1733 20.6 46.6613 20.448 47.2213 20.448C48.1813 20.448 48.9893 20.792 49.6453 21.48L49.1893 24.648C48.5173 24.088 47.7893 23.808 47.0053 23.808C45.5973 23.808 44.8933 24.656 44.8933 26.352V33H41.4133ZM55.4452 33.288C53.3812 33.288 52.3492 32.168 52.3492 29.928V23.784H50.6692V20.736H52.3492V17.328L55.8052 15.672V20.736H58.4692V23.784H55.8052V29.592C55.8052 29.816 55.8692 29.992 55.9972 30.12C56.1412 30.232 56.3092 30.288 56.5012 30.288C57.2052 30.288 57.9092 30.128 58.6132 29.808L58.2292 32.736C57.4772 33.104 56.5492 33.288 55.4452 33.288ZM69.5492 33V31.872C68.7812 32.816 67.6612 33.288 66.1892 33.288C65.6932 33.288 65.2132 33.208 64.7492 33.048C64.2852 32.904 63.8372 32.664 63.4052 32.328C62.9732 31.992 62.6212 31.512 62.3492 30.888C62.0932 30.264 61.9652 29.536 61.9652 28.704V20.736H65.4452V27.12C65.4452 28.096 65.5892 28.808 65.8772 29.256C66.1652 29.704 66.6772 29.928 67.4132 29.928C68.1492 29.928 68.6852 29.704 69.0212 29.256C69.3732 28.808 69.5492 28.112 69.5492 27.168V20.736H73.0292V33H69.5492ZM83.5758 20.736H87.0558V30.864C87.0558 31.824 87.0158 32.616 86.9358 33.24C86.8718 33.88 86.7198 34.488 86.4798 35.064C86.2558 35.656 85.9278 36.12 85.4958 36.456C85.0798 36.808 84.5198 37.096 83.8158 37.32C83.1278 37.56 82.2798 37.72 81.2718 37.8L79.2798 34.824C80.9918 34.68 82.1278 34.48 82.6878 34.224C83.2638 33.968 83.5598 33.4 83.5758 32.52C83.0318 33.032 82.2158 33.288 81.1278 33.288C79.5758 33.288 78.3358 32.736 77.4078 31.632C76.4958 30.528 76.0398 28.936 76.0398 26.856C76.0398 24.904 76.5038 23.352 77.4318 22.2C78.3758 21.032 79.6078 20.448 81.1278 20.448C82.1838 20.448 82.9998 20.72 83.5758 21.264V20.736ZM83.5758 29.184V24.6C83.5598 24.584 83.4958 24.528 83.3838 24.432C83.2878 24.32 83.1998 24.24 83.1198 24.192C83.0558 24.144 82.9518 24.088 82.8078 24.024C82.6638 23.944 82.4958 23.888 82.3038 23.856C82.1118 23.824 81.8958 23.808 81.6558 23.808C80.9838 23.808 80.4558 24.072 80.0718 24.6C79.7038 25.128 79.5198 25.88 79.5198 26.856C79.5198 28.904 80.2318 29.928 81.6558 29.928C82.5038 29.928 83.1438 29.68 83.5758 29.184ZM98.1195 33V31.872C97.3515 32.816 96.2315 33.288 94.7595 33.288C94.2635 33.288 93.7835 33.208 93.3195 33.048C92.8555 32.904 92.4075 32.664 91.9755 32.328C91.5435 31.992 91.1915 31.512 90.9195 30.888C90.6635 30.264 90.5355 29.536 90.5355 28.704V20.736H94.0155V27.12C94.0155 28.096 94.1595 28.808 94.4475 29.256C94.7355 29.704 95.2475 29.928 95.9835 29.928C96.7195 29.928 97.2555 29.704 97.5915 29.256C97.9435 28.808 98.1195 28.112 98.1195 27.168V20.736H101.599V33H98.1195ZM112.314 19.176L110.442 17.64L108.546 19.176H105.402L108.81 15.432H112.074L115.458 19.176H112.314ZM110.442 33.288C108.634 33.288 107.21 32.72 106.17 31.584C105.13 30.448 104.61 28.872 104.61 26.856C104.61 24.888 105.13 23.328 106.17 22.176C107.226 21.024 108.65 20.448 110.442 20.448C112.074 20.448 113.402 20.944 114.426 21.936C115.45 22.928 115.962 24.368 115.962 26.256C115.962 27.04 115.93 27.64 115.866 28.056H108.018C108.05 28.824 108.29 29.4 108.738 29.784C109.186 30.152 109.754 30.336 110.442 30.336C111.562 30.336 112.482 29.904 113.202 29.04L115.218 31.056C113.986 32.544 112.394 33.288 110.442 33.288ZM108.042 25.44H112.626C112.45 24.08 111.674 23.4 110.298 23.4C109.674 23.4 109.162 23.584 108.762 23.952C108.362 24.304 108.122 24.8 108.042 25.44ZM122.863 33.288C121.855 33.288 120.887 33.08 119.959 32.664C119.031 32.232 118.319 31.664 117.823 30.96L120.055 29.064C120.391 29.4 120.823 29.712 121.351 30C121.879 30.288 122.415 30.432 122.959 30.432C124.095 30.432 124.663 30.112 124.663 29.472C124.663 29.184 124.511 28.952 124.207 28.776C123.919 28.584 123.375 28.336 122.575 28.032C121.055 27.52 119.951 26.976 119.263 26.4C118.575 25.808 118.231 24.984 118.231 23.928C118.231 22.856 118.663 22.008 119.527 21.384C120.407 20.76 121.495 20.448 122.791 20.448C124.647 20.448 126.183 21.128 127.399 22.488L125.143 24.336C124.391 23.648 123.607 23.304 122.791 23.304C121.831 23.304 121.351 23.568 121.351 24.096C121.351 24.592 122.151 25.04 123.751 25.44C124.327 25.632 124.799 25.816 125.167 25.992C125.551 26.152 125.967 26.392 126.415 26.712C126.863 27.016 127.199 27.4 127.423 27.864C127.663 28.328 127.783 28.864 127.783 29.472C127.783 30.672 127.335 31.608 126.439 32.28C125.559 32.952 124.367 33.288 122.863 33.288ZM43.3833 58.192C42.178 58.192 41.2286 57.8133 40.5353 57.056C39.842 56.2987 39.4953 55.248 39.4953 53.904C39.4953 52.592 39.842 51.552 40.5353 50.784C41.2393 50.016 42.1886 49.632 43.3833 49.632C44.4713 49.632 45.3566 49.9627 46.0393 50.624C46.722 51.2853 47.0633 52.2453 47.0633 53.504C47.0633 54.0267 47.042 54.4267 46.9993 54.704H41.7673C41.7886 55.216 41.9486 55.6 42.2473 55.856C42.546 56.1013 42.9246 56.224 43.3833 56.224C44.13 56.224 44.7433 55.936 45.2233 55.36L46.5673 56.704C45.746 57.696 44.6846 58.192 43.3833 58.192ZM41.7833 52.96H44.8393C44.722 52.0533 44.2046 51.6 43.2873 51.6C42.8713 51.6 42.53 51.7227 42.2633 51.968C41.9966 52.2027 41.8366 52.5333 41.7833 52.96ZM53.9651 58V57.248C53.4531 57.8773 52.7064 58.192 51.7251 58.192C51.3944 58.192 51.0744 58.1387 50.7651 58.032C50.4557 57.936 50.1571 57.776 49.8691 57.552C49.5811 57.328 49.3464 57.008 49.1651 56.592C48.9944 56.176 48.9091 55.6907 48.9091 55.136V49.824H51.2291V54.08C51.2291 54.7307 51.3251 55.2053 51.5171 55.504C51.7091 55.8027 52.0504 55.952 52.5411 55.952C53.0317 55.952 53.3891 55.8027 53.6131 55.504C53.8477 55.2053 53.9651 54.7413 53.9651 54.112V49.824H56.2851V58H53.9651ZM58.6922 58V49.824H61.0122V50.56C61.1189 50.3467 61.3109 50.1387 61.5882 49.936C61.8655 49.7333 62.1909 49.632 62.5642 49.632C63.2042 49.632 63.7429 49.8613 64.1802 50.32L63.8762 52.432C63.4282 52.0587 62.9429 51.872 62.4202 51.872C61.4815 51.872 61.0122 52.4373 61.0122 53.568V58H58.6922ZM68.5998 58.192C67.4265 58.192 66.4985 57.8133 65.8158 57.056C65.1438 56.2987 64.8078 55.2533 64.8078 53.92C64.8078 52.5973 65.1491 51.552 65.8318 50.784C66.5145 50.016 67.4371 49.632 68.5998 49.632C69.7518 49.632 70.6638 50.016 71.3358 50.784C72.0185 51.552 72.3598 52.5973 72.3598 53.92C72.3598 55.2533 72.0238 56.2987 71.3518 57.056C70.6798 57.8133 69.7625 58.192 68.5998 58.192ZM68.5998 55.952C69.0585 55.952 69.4105 55.776 69.6558 55.424C69.9118 55.0613 70.0398 54.56 70.0398 53.92C70.0398 53.28 69.9118 52.7787 69.6558 52.416C69.4105 52.0533 69.0585 51.872 68.5998 51.872C68.1518 51.872 67.7945 52.0533 67.5278 52.416C67.2611 52.7787 67.1278 53.28 67.1278 53.92C67.1278 54.56 67.2611 55.0613 67.5278 55.424C67.7945 55.776 68.1518 55.952 68.5998 55.952ZM78.3001 58.192C77.5961 58.192 77.0574 57.952 76.6841 57.472V60.144L74.3641 61.184V49.824H76.6841V50.384C77.0467 49.8827 77.5961 49.632 78.3321 49.632C79.3561 49.632 80.1721 50.0053 80.7801 50.752C81.3987 51.488 81.7081 52.544 81.7081 53.92C81.7081 55.232 81.3881 56.272 80.7481 57.04C80.1081 57.808 79.2921 58.192 78.3001 58.192ZM77.9321 55.952C78.3907 55.952 78.7481 55.776 79.0041 55.424C79.2601 55.0613 79.3881 54.56 79.3881 53.92C79.3881 52.5547 78.9027 51.872 77.9321 51.872C77.4094 51.872 76.9934 52.0373 76.6841 52.368V55.424C76.7481 55.5627 76.8921 55.6853 77.1161 55.792C77.3401 55.8987 77.6121 55.952 77.9321 55.952ZM87.1958 58.192C85.9905 58.192 85.0411 57.8133 84.3478 57.056C83.6545 56.2987 83.3078 55.248 83.3078 53.904C83.3078 52.592 83.6545 51.552 84.3478 50.784C85.0518 50.016 86.0011 49.632 87.1958 49.632C88.2838 49.632 89.1691 49.9627 89.8518 50.624C90.5345 51.2853 90.8758 52.2453 90.8758 53.504C90.8758 54.0267 90.8545 54.4267 90.8118 54.704H85.5798C85.6011 55.216 85.7611 55.6 86.0598 55.856C86.3585 56.1013 86.7371 56.224 87.1958 56.224C87.9425 56.224 88.5558 55.936 89.0358 55.36L90.3798 56.704C89.5585 57.696 88.4971 58.192 87.1958 58.192ZM85.5958 52.96H88.6518C88.5345 52.0533 88.0171 51.6 87.0998 51.6C86.6838 51.6 86.3425 51.7227 86.0758 51.968C85.8091 52.2027 85.6491 52.5333 85.5958 52.96ZM97.7776 58V57.248C97.2656 57.8773 96.5189 58.192 95.5376 58.192C95.2069 58.192 94.8869 58.1387 94.5776 58.032C94.2682 57.936 93.9696 57.776 93.6816 57.552C93.3936 57.328 93.1589 57.008 92.9776 56.592C92.8069 56.176 92.7216 55.6907 92.7216 55.136V49.824H95.0416V54.08C95.0416 54.7307 95.1376 55.2053 95.3296 55.504C95.5216 55.8027 95.8629 55.952 96.3536 55.952C96.8442 55.952 97.2016 55.8027 97.4256 55.504C97.6602 55.2053 97.7776 54.7413 97.7776 54.112V49.824H100.098V58H97.7776Z" fill="url(#paint0_linear)"/>
<path d="M33.7758 83L29.7438 71.8H32.3838L34.7998 78.856C34.8318 78.9307 34.8638 79.032 34.8958 79.16L34.9438 79.336C34.9651 79.24 35.0131 79.08 35.0878 78.856L37.5038 71.8H40.1118L36.0958 83H33.7758ZM42.8996 74.04C42.537 74.04 42.2223 73.912 41.9556 73.656C41.689 73.3893 41.5556 73.0747 41.5556 72.712C41.5556 72.3493 41.6836 72.04 41.9396 71.784C42.2063 71.528 42.5263 71.4 42.8996 71.4C43.273 71.4 43.5876 71.528 43.8436 71.784C44.0996 72.0293 44.2276 72.3387 44.2276 72.712C44.2276 73.0747 44.0996 73.3893 43.8436 73.656C43.5876 73.912 43.273 74.04 42.8996 74.04ZM41.7316 83V74.824H44.0516V83H41.7316ZM49.2656 83.192C48.5936 83.192 47.9483 83.0533 47.3296 82.776C46.711 82.488 46.2363 82.1093 45.9056 81.64L47.3936 80.376C47.6176 80.6 47.9056 80.808 48.2576 81C48.6096 81.192 48.967 81.288 49.3296 81.288C50.087 81.288 50.4656 81.0747 50.4656 80.648C50.4656 80.456 50.3643 80.3013 50.1616 80.184C49.9696 80.056 49.607 79.8907 49.0736 79.688C48.0603 79.3467 47.3243 78.984 46.8656 78.6C46.407 78.2053 46.1776 77.656 46.1776 76.952C46.1776 76.2373 46.4656 75.672 47.0416 75.256C47.6283 74.84 48.3536 74.632 49.2176 74.632C50.455 74.632 51.479 75.0853 52.2896 75.992L50.7856 77.224C50.2843 76.7653 49.7616 76.536 49.2176 76.536C48.5776 76.536 48.2576 76.712 48.2576 77.064C48.2576 77.3947 48.791 77.6933 49.8576 77.96C50.2416 78.088 50.5563 78.2107 50.8016 78.328C51.0576 78.4347 51.335 78.5947 51.6336 78.808C51.9323 79.0107 52.1563 79.2667 52.3056 79.576C52.4656 79.8853 52.5456 80.2427 52.5456 80.648C52.5456 81.448 52.247 82.072 51.6496 82.52C51.063 82.968 50.2683 83.192 49.2656 83.192ZM55.7278 74.04C55.3651 74.04 55.0504 73.912 54.7838 73.656C54.5171 73.3893 54.3838 73.0747 54.3838 72.712C54.3838 72.3493 54.5118 72.04 54.7678 71.784C55.0344 71.528 55.3544 71.4 55.7278 71.4C56.1011 71.4 56.4158 71.528 56.6718 71.784C56.9278 72.0293 57.0558 72.3387 57.0558 72.712C57.0558 73.0747 56.9278 73.3893 56.6718 73.656C56.4158 73.912 56.1011 74.04 55.7278 74.04ZM54.5598 83V74.824H56.8798V83H54.5598ZM61.7578 83.192C60.3818 83.192 59.6938 82.4453 59.6938 80.952V76.856H58.5738V74.824H59.6938V72.552L61.9978 71.448V74.824H63.7738V76.856H61.9978V80.728C61.9978 80.8773 62.0404 80.9947 62.1258 81.08C62.2218 81.1547 62.3338 81.192 62.4618 81.192C62.9311 81.192 63.4004 81.0853 63.8698 80.872L63.6138 82.824C63.1124 83.0693 62.4938 83.192 61.7578 83.192ZM69.1568 83.192C67.9514 83.192 67.0021 82.8133 66.3088 82.056C65.6154 81.2987 65.2688 80.248 65.2688 78.904C65.2688 77.592 65.6154 76.552 66.3088 75.784C67.0128 75.016 67.9621 74.632 69.1568 74.632C70.2448 74.632 71.1301 74.9627 71.8128 75.624C72.4954 76.2853 72.8368 77.2453 72.8368 78.504C72.8368 79.0267 72.8154 79.4267 72.7728 79.704H67.5408C67.5621 80.216 67.7221 80.6 68.0208 80.856C68.3194 81.1013 68.6981 81.224 69.1568 81.224C69.9034 81.224 70.5168 80.936 70.9968 80.36L72.3408 81.704C71.5194 82.696 70.4581 83.192 69.1568 83.192ZM67.5568 77.96H70.6128C70.4954 77.0533 69.9781 76.6 69.0608 76.6C68.6448 76.6 68.3034 76.7227 68.0368 76.968C67.7701 77.2027 67.6101 77.5333 67.5568 77.96ZM83.5115 83V82.392C83.0208 82.9253 82.3435 83.192 81.4795 83.192C80.5728 83.192 79.8315 82.9627 79.2555 82.504C78.6902 82.0347 78.4075 81.368 78.4075 80.504C78.4075 79.6613 78.7382 79.016 79.3995 78.568C80.0608 78.1093 80.8342 77.88 81.7195 77.88C82.4875 77.88 83.0848 77.976 83.5115 78.168V77.72C83.5115 77.3467 83.3942 77.064 83.1595 76.872C82.9248 76.6693 82.5995 76.568 82.1835 76.568C81.2982 76.568 80.4235 76.856 79.5595 77.432L78.8395 75.656C79.8422 74.9733 81.0102 74.632 82.3435 74.632C84.6582 74.632 85.8155 75.6987 85.8155 77.832V83H83.5115ZM81.9275 81.24C82.5035 81.24 83.0315 81.048 83.5115 80.664V79.928C83.0848 79.8 82.6208 79.736 82.1195 79.736C81.1595 79.736 80.6795 79.9973 80.6795 80.52C80.6795 81 81.0955 81.24 81.9275 81.24ZM91.0514 83.192C90.07 83.192 89.2594 82.808 88.6194 82.04C87.9794 81.272 87.6594 80.232 87.6594 78.92C87.6594 77.5547 87.9794 76.4987 88.6194 75.752C89.27 75.0053 90.1234 74.632 91.1794 74.632C91.8834 74.632 92.3847 74.8827 92.6834 75.384V74.824H95.0034V85.144L92.6834 86.2V82.472C92.31 82.952 91.766 83.192 91.0514 83.192ZM91.4354 80.952C92.0967 80.952 92.5127 80.776 92.6834 80.424V77.368C92.374 77.0373 91.958 76.872 91.4354 76.872C90.9554 76.872 90.5927 77.0533 90.3474 77.416C90.102 77.768 89.9794 78.2693 89.9794 78.92C89.9794 79.56 90.1074 80.0613 90.3634 80.424C90.6194 80.776 90.9767 80.952 91.4354 80.952ZM102.379 83V82.248C101.867 82.8773 101.12 83.192 100.139 83.192C99.8085 83.192 99.4885 83.1387 99.1791 83.032C98.8698 82.936 98.5711 82.776 98.2831 82.552C97.9951 82.328 97.7605 82.008 97.5791 81.592C97.4085 81.176 97.3231 80.6907 97.3231 80.136V74.824H99.6431V79.08C99.6431 79.7307 99.7391 80.2053 99.9311 80.504C100.123 80.8027 100.464 80.952 100.955 80.952C101.446 80.952 101.803 80.8027 102.027 80.504C102.262 80.2053 102.379 79.7413 102.379 79.112V74.824H104.699V83H102.379ZM108.29 74.04C107.928 74.04 107.613 73.912 107.346 73.656C107.08 73.3893 106.946 73.0747 106.946 72.712C106.946 72.3493 107.074 72.04 107.33 71.784C107.597 71.528 107.917 71.4 108.29 71.4C108.664 71.4 108.978 71.528 109.234 71.784C109.49 72.0293 109.618 72.3387 109.618 72.712C109.618 73.0747 109.49 73.3893 109.234 73.656C108.978 73.912 108.664 74.04 108.29 74.04ZM107.122 83V74.824H109.442V83H107.122Z" fill="url(#paint1_linear)"/>
<defs>
<linearGradient id="paint0_linear" x1="70" y1="91.8667" x2="70" y2="6" gradientUnits="userSpaceOnUse">
<stop offset="0.0217391" stop-color="#5B2F00"/>
<stop offset="1" stop-color="#FF8000"/>
</linearGradient>
<linearGradient id="paint1_linear" x1="70" y1="90" x2="70" y2="6" gradientUnits="userSpaceOnUse">
<stop stop-color="#037164"/>
<stop offset="1" stop-color="#00AC98"/>
</linearGradient>
</defs>
</svg>
